<svg width="65" height="65" viewBox="0 0 65 65" fill="none" xmlns="http://www.w3.org/2000/svg">
<path d="M32.5 65C50.4493 65 65 50.4493 65 32.5C65 14.5507 50.4493 0 32.5 0C14.5507 0 0 14.5507 0 32.5C0 50.4493 14.5507 65 32.5 65Z" fill="#C4D4DF"/>
<path d="M32.4994 59.1941C47.2425 59.1941 59.1941 47.2425 59.1941 32.4994C59.1941 17.7563 47.2425 5.80469 32.4994 5.80469C17.7563 5.80469 5.80469 17.7563 5.80469 32.4994C5.80469 47.2425 17.7563 59.1941 32.4994 59.1941Z" fill="#A0BCC8"/>
<path opacity="0.5" d="M30.502 62.7658H30.4544H30.2641C29.6931 62.7182 29.3124 62.2423 29.36 61.7189C29.4075 61.1479 29.8834 60.7197 30.4068 60.8148H30.5972C31.1682 60.8624 31.5488 61.3383 31.5012 61.8617C31.4537 62.3851 31.0254 62.7658 30.502 62.7658ZM38.3058 62.2899C37.8299 62.2899 37.4017 61.9568 37.3065 61.481C37.2114 60.9576 37.5444 60.4342 38.0679 60.2914L38.2582 60.2438C38.7816 60.1486 39.3051 60.4817 39.4478 61.0052C39.543 61.5286 39.2099 62.052 38.6865 62.1948L38.4961 62.2424C38.401 62.2899 38.3534 62.2899 38.3058 62.2899ZM22.6982 61.1955C22.603 61.1955 22.4603 61.1955 22.3651 61.1479L22.1747 61.1003C21.6513 60.91 21.3658 60.339 21.5562 59.8156C21.7465 59.2921 22.3175 59.0066 22.8409 59.197L23.0313 59.2445C23.5547 59.4349 23.8402 60.0059 23.6499 60.5293C23.4595 60.91 23.0788 61.1955 22.6982 61.1955ZM45.8241 59.6252C45.4434 59.6252 45.1103 59.4349 44.92 59.0542C44.6821 58.5784 44.8724 57.9598 45.3483 57.7219L45.491 57.6267C45.9668 57.3888 46.5854 57.5791 46.8234 58.0549C47.0613 58.5308 46.8709 59.1494 46.3951 59.3873L46.2048 59.4825C46.1572 59.6252 45.9668 59.6252 45.8241 59.6252ZM15.5605 57.4839C15.3702 57.4839 15.1799 57.4363 14.9895 57.2936L14.8468 57.1984C14.4185 56.8653 14.2758 56.2467 14.6089 55.8185C14.942 55.3902 15.5605 55.2475 15.9888 55.5806L16.1316 55.6757C16.5598 56.0088 16.7026 56.6274 16.3695 57.0557C16.1791 57.3412 15.8936 57.4839 15.5605 57.4839ZM52.3907 55.0571C52.1052 55.0571 51.8673 54.962 51.6769 54.724C51.2963 54.2958 51.3439 53.6772 51.7245 53.2965L51.8673 53.1538C52.248 52.7731 52.9141 52.8207 53.2948 53.2014C53.6755 53.582 53.6279 54.2482 53.2472 54.6289L53.1045 54.7716C52.8666 54.962 52.6286 55.0571 52.3907 55.0571ZM9.70769 52.0593C9.42218 52.0593 9.13668 51.9166 8.94634 51.6787L8.80359 51.5359C8.4705 51.1077 8.51809 50.4891 8.94634 50.1084C9.3746 49.7753 9.9932 49.8229 10.3739 50.2511L10.469 50.3939C10.8021 50.8221 10.7545 51.4407 10.3263 51.8214C10.1835 51.9642 9.94561 52.0593 9.70769 52.0593ZM57.4822 48.9188C57.2919 48.9188 57.1015 48.8712 56.9588 48.776C56.4829 48.4905 56.3402 47.8719 56.6257 47.3961L56.7209 47.2533C57.0064 46.7775 57.625 46.6347 58.1008 46.9202C58.5767 47.2057 58.7194 47.8243 58.4339 48.3002L58.3387 48.4905C58.1484 48.7284 57.8153 48.9188 57.4822 48.9188ZM5.56787 45.2548C5.18719 45.2548 4.80652 45.0169 4.66377 44.6362L4.61618 44.4935C4.37826 43.97 4.61618 43.3514 5.13961 43.1611C5.66303 42.9232 6.23404 43.1611 6.42438 43.6369L6.51955 43.8273C6.75747 44.3507 6.51955 44.9217 5.99613 45.1596C5.85337 45.2072 5.71062 45.2548 5.56787 45.2548ZM60.7179 41.5908C60.6228 41.5908 60.5276 41.5908 60.48 41.5432C59.9566 41.4005 59.6235 40.8771 59.7663 40.3536L59.8138 40.1633C59.9566 39.6399 60.5276 39.3068 61.051 39.4495C61.5745 39.5923 61.9075 40.1633 61.7648 40.6867L61.7172 40.8295C61.5745 41.2577 61.1462 41.5908 60.7179 41.5908ZM3.379 37.5462C2.90315 37.5462 2.47489 37.1655 2.37972 36.6896L2.33214 36.4993C2.28456 35.9759 2.66523 35.4525 3.18866 35.3573C3.71208 35.2621 4.23551 35.6904 4.33068 36.2138L4.37826 36.4041C4.47343 36.9276 4.09276 37.451 3.52175 37.5462C3.47416 37.5462 3.42658 37.5462 3.379 37.5462ZM61.86 33.6918C61.8124 33.6918 61.86 33.6918 61.86 33.6918C61.289 33.6918 60.8607 33.2636 60.8607 32.6926V32.5022V32.4071C60.8607 31.8361 61.289 31.4078 61.86 31.4078C62.431 31.4078 62.8592 31.8361 62.8592 32.4071V32.5498V32.7402C62.8116 33.2636 62.3834 33.6918 61.86 33.6918ZM3.379 29.552C3.33141 29.552 3.28383 29.552 3.23624 29.552C2.71281 29.4568 2.28456 28.981 2.37972 28.41L2.42731 28.2197C2.52248 27.6962 2.99832 27.3156 3.56933 27.3631C4.09275 27.4583 4.47343 27.9342 4.42585 28.5052L4.37826 28.6955C4.28309 29.1713 3.85484 29.552 3.379 29.552ZM60.7655 25.6501C60.3373 25.6501 59.909 25.3646 59.8138 24.9364L59.7663 24.746C59.6235 24.2226 59.909 23.6516 60.4324 23.5088C60.9559 23.3661 61.5269 23.6516 61.6696 24.175L61.7172 24.3653C61.86 24.8888 61.5745 25.4598 61.0034 25.6025C60.9559 25.6501 60.8607 25.6501 60.7655 25.6501ZM5.52028 21.8434C5.37753 21.8434 5.23478 21.7958 5.13961 21.7482C4.61618 21.5103 4.37826 20.9393 4.61618 20.4159L4.71135 20.2255C4.94927 19.7021 5.52028 19.5118 6.04371 19.7021C6.56714 19.94 6.75747 20.511 6.56713 21.0344L6.47197 21.2248C6.28163 21.653 5.90096 21.8434 5.52028 21.8434ZM57.625 18.3221C57.2919 18.3221 56.9588 18.1318 56.7685 17.8463L56.6733 17.7036C56.3878 17.2277 56.5305 16.6091 57.0064 16.3236C57.4822 16.0381 58.1008 16.1809 58.3863 16.6567L58.4815 16.847C58.767 17.3229 58.6242 17.9415 58.1484 18.227C57.9581 18.2746 57.7677 18.3221 57.625 18.3221ZM9.66011 15.0388C9.42219 15.0388 9.23185 14.9437 9.04151 14.8009C8.61325 14.4678 8.56567 13.8017 8.89876 13.3734L9.04151 13.2306C9.3746 12.8024 10.0408 12.7548 10.469 13.0879C10.8973 13.421 10.9449 14.0872 10.6118 14.5154L10.5166 14.6582C10.2311 14.8961 9.94561 15.0388 9.66011 15.0388ZM52.581 12.0886C52.3431 12.0886 52.1052 11.9935 51.8673 11.8031L51.7245 11.6604C51.2963 11.2797 51.2963 10.6611 51.6769 10.2328C52.0576 9.80458 52.6762 9.80458 53.1045 10.1853L53.2472 10.328C53.6279 10.7087 53.6755 11.3273 53.2948 11.7555C53.1045 11.9935 52.8666 12.0886 52.581 12.0886ZM15.4654 9.56666C15.1323 9.56666 14.8468 9.42391 14.6564 9.1384C14.3234 8.71014 14.4185 8.04397 14.8944 7.75846L15.0847 7.61571C15.5605 7.28262 16.1791 7.42537 16.4646 7.85363C16.7977 8.32947 16.655 8.94807 16.2267 9.23357L16.084 9.32874C15.8936 9.47149 15.7033 9.56666 15.4654 9.56666ZM46.062 7.47296C45.9193 7.47296 45.7289 7.42537 45.5862 7.37779L45.4434 7.28262C44.9676 7.0447 44.7772 6.4261 45.0152 5.95026C45.2531 5.47442 45.8717 5.28408 46.3475 5.522L46.5379 5.61717C47.0137 5.85509 47.204 6.47369 46.9661 6.94953C46.7758 7.28262 46.4427 7.47296 46.062 7.47296ZM22.5554 5.85509C22.1272 5.85509 21.7465 5.61717 21.6037 5.18891C21.4134 4.66549 21.6989 4.09448 22.2223 3.90414L22.4127 3.85656C22.9361 3.66622 23.5071 3.95173 23.6974 4.47515C23.8878 4.99858 23.6023 5.56959 23.0788 5.75993L22.8885 5.80751C22.7933 5.80751 22.6506 5.85509 22.5554 5.85509ZM38.5437 4.76066C38.4961 4.76066 38.401 4.76066 38.3534 4.76066L38.163 4.71307C37.6396 4.6179 37.2589 4.09448 37.4017 3.52347C37.4969 3.00004 38.0203 2.61937 38.5913 2.76212L38.7816 2.80971C39.3051 2.90487 39.6857 3.47588 39.543 3.99931C39.4478 4.42757 39.0196 4.76066 38.5437 4.76066ZM30.3592 4.18965C29.8358 4.18965 29.4075 3.80897 29.36 3.23796C29.3124 2.66695 29.7406 2.19111 30.2641 2.19111H30.4544C30.9778 2.14353 31.5012 2.57178 31.5012 3.1428C31.5488 3.71381 31.1206 4.18965 30.5496 4.18965H30.3592C30.4068 4.18965 30.4068 4.18965 30.3592 4.18965Z" fill="white"/>
</svg>
