<svg width="66" height="78" viewBox="0 0 66 78" fill="none" xmlns="http://www.w3.org/2000/svg">
<path d="M12.3766 69.6483L27.3971 39.703C27.8754 38.7941 29.1192 38.6984 29.6932 39.5116L33.6157 44.8214C33.8549 45.1563 34.2855 45.3955 34.716 45.3955H41.3174C42.3219 45.3955 42.9916 46.4478 42.5611 47.3567L27.4927 77.2543C27.0144 78.1632 25.7706 78.2588 25.1488 77.4456L21.3219 72.0401C21.0827 71.6575 20.6522 71.4661 20.1738 71.4661L13.5725 71.6096C12.5679 71.6574 11.8982 70.5572 12.3766 69.6483Z" fill="#B3B960"/>
<path d="M53.8612 69.6483L38.7929 39.703C38.3145 38.7941 37.0708 38.6984 36.4967 39.5116L32.5742 44.8214C32.335 45.1563 31.9045 45.3955 31.474 45.3955H24.8726C23.868 45.3955 23.1983 46.4478 23.6289 47.3567L38.6972 77.2543C39.1756 78.1632 40.4193 78.2588 41.0412 77.4456L44.8681 72.0401C45.1072 71.6575 45.5378 71.4661 46.0161 71.4661L52.6175 71.6096C53.6221 71.6574 54.2918 70.5572 53.8612 69.6483Z" fill="#B3B960"/>
<path d="M32.672 65.344C50.7163 65.344 65.344 50.7163 65.344 32.672C65.344 14.6278 50.7163 0 32.672 0C14.6278 0 0 14.6278 0 32.672C0 50.7163 14.6278 65.344 32.672 65.344Z" fill="#D2DA71"/>
<path d="M32.672 59.508C47.4931 59.508 59.508 47.4931 59.508 32.672C59.508 17.8508 47.4931 5.83594 32.672 5.83594C17.8508 5.83594 5.83594 17.8508 5.83594 32.672C5.83594 47.4931 17.8508 59.508 32.672 59.508Z" fill="#B3B960"/>
<path opacity="0.5" d="M30.6628 63.0981H30.615H30.4236C29.8496 63.0503 29.4669 62.5719 29.5148 62.0457C29.5626 61.4717 30.041 61.0412 30.5672 61.1368H30.7585C31.3325 61.1847 31.7152 61.663 31.6674 62.1892C31.6195 62.7154 31.189 63.0981 30.6628 63.0981ZM38.5079 62.6198C38.0296 62.6198 37.599 62.2849 37.5034 61.8065C37.4077 61.2804 37.7426 60.7542 38.2687 60.6106L38.4601 60.5628C38.9863 60.4671 39.5125 60.802 39.656 61.3282C39.7517 61.8544 39.4168 62.3806 38.8906 62.5241L38.6993 62.5719C38.6036 62.6198 38.5558 62.6198 38.5079 62.6198ZM22.8177 61.5195C22.722 61.5195 22.5785 61.5195 22.4829 61.4717L22.2915 61.4239C21.7653 61.2325 21.4783 60.6585 21.6696 60.1323C21.861 59.6061 22.435 59.3191 22.9612 59.5104L23.1526 59.5583C23.6788 59.7496 23.9658 60.3236 23.7744 60.8498C23.5831 61.2325 23.2004 61.5195 22.8177 61.5195ZM46.066 59.9409C45.6833 59.9409 45.3485 59.7496 45.1571 59.3669C44.918 58.8886 45.1093 58.2667 45.5877 58.0275L45.7312 57.9318C46.2095 57.6926 46.8314 57.884 47.0706 58.3624C47.3098 58.8407 47.1184 59.4626 46.6401 59.7018L46.4487 59.7974C46.4009 59.9409 46.2095 59.9409 46.066 59.9409ZM15.6423 57.7883C15.451 57.7883 15.2596 57.7405 15.0683 57.597L14.9248 57.5013C14.4942 57.1665 14.3507 56.5446 14.6856 56.1141C15.0204 55.6835 15.6423 55.54 16.0728 55.8749L16.2163 55.9706C16.6469 56.3054 16.7904 56.9273 16.4555 57.3578C16.2642 57.6448 15.9772 57.7883 15.6423 57.7883ZM52.6674 55.3487C52.3804 55.3487 52.1412 55.253 51.9499 55.0138C51.5672 54.5833 51.615 53.9614 51.9977 53.5788L52.1412 53.4352C52.5239 53.0526 53.1936 53.1004 53.5763 53.4831C53.959 53.8658 53.9111 54.5355 53.5285 54.9182L53.3849 55.0617C53.1458 55.253 52.9066 55.3487 52.6674 55.3487ZM9.75847 52.335C9.47145 52.335 9.18444 52.1915 8.99309 51.9523L8.84958 51.8088C8.51473 51.3783 8.56257 50.7564 8.99309 50.3737C9.42362 50.0389 10.0455 50.0867 10.4282 50.5172L10.5238 50.6608C10.8587 51.0913 10.8109 51.7132 10.3803 52.0958C10.2368 52.2393 9.99765 52.335 9.75847 52.335ZM57.7859 49.1778C57.5945 49.1778 57.4032 49.13 57.2597 49.0343C56.7813 48.7473 56.6378 48.1254 56.9248 47.6471L57.0205 47.5036C57.3075 47.0252 57.9294 46.8817 58.4077 47.1687C58.8861 47.4557 59.0296 48.0776 58.7426 48.556L58.6469 48.7473C58.4556 48.9865 58.1207 49.1778 57.7859 49.1778ZM5.59673 45.4945C5.21404 45.4945 4.83136 45.2553 4.68785 44.8726L4.64001 44.7291C4.40083 44.2029 4.64001 43.581 5.16621 43.3897C5.6924 43.1505 6.26644 43.3897 6.45778 43.868L6.55345 44.0594C6.79263 44.5856 6.55345 45.1596 6.02726 45.3988C5.88375 45.4466 5.74024 45.4945 5.59673 45.4945ZM61.0387 41.8111C60.943 41.8111 60.8474 41.8111 60.7995 41.7633C60.2733 41.6197 59.9385 41.0935 60.082 40.5674L60.1298 40.376C60.2733 39.8498 60.8474 39.515 61.3736 39.6585C61.8998 39.802 62.2346 40.376 62.0911 40.9022L62.0433 41.0457C61.8998 41.4762 61.4692 41.8111 61.0387 41.8111ZM3.39628 37.745C2.91792 37.745 2.48739 37.3623 2.39172 36.884L2.34388 36.6926C2.29604 36.1664 2.67873 35.6402 3.20493 35.5446C3.73113 35.4489 4.25732 35.8794 4.353 36.4056L4.40083 36.597C4.4965 37.1232 4.11381 37.6494 3.53978 37.745C3.49195 37.745 3.44411 37.745 3.39628 37.745ZM62.1868 33.8703C62.1389 33.8703 62.1868 33.8703 62.1868 33.8703C61.6127 33.8703 61.1822 33.4398 61.1822 32.8657V32.6744V32.5787C61.1822 32.0047 61.6127 31.5742 62.1868 31.5742C62.7608 31.5742 63.1913 32.0047 63.1913 32.5787V32.7222V32.9136C63.1435 33.4398 62.713 33.8703 62.1868 33.8703ZM3.39628 29.7086C3.34844 29.7086 3.3006 29.7086 3.25277 29.7086C2.72657 29.6129 2.29604 29.1345 2.39172 28.5605L2.43955 28.3692C2.53523 27.843 3.01358 27.4603 3.58762 27.5081C4.11381 27.6038 4.4965 28.0821 4.44867 28.6562L4.40083 28.8475C4.30516 29.3259 3.87464 29.7086 3.39628 29.7086ZM61.0865 25.786C60.656 25.786 60.2255 25.499 60.1298 25.0685L60.082 24.8771C59.9385 24.3509 60.2255 23.7769 60.7517 23.6334C61.2779 23.4899 61.8519 23.7769 61.9954 24.3031L62.0433 24.4944C62.1868 25.0206 61.8998 25.5947 61.3257 25.7382C61.2779 25.786 61.1822 25.786 61.0865 25.786ZM5.5489 21.9591C5.40539 21.9591 5.26188 21.9113 5.16621 21.8635C4.64001 21.6243 4.40083 21.0502 4.64001 20.5241L4.73568 20.3327C4.97486 19.8065 5.5489 19.6152 6.07509 19.8065C6.60129 20.0457 6.79263 20.6197 6.60129 21.1459L6.50562 21.3373C6.31427 21.7678 5.93159 21.9591 5.5489 21.9591ZM57.9294 18.4193C57.5945 18.4193 57.2597 18.2279 57.0683 17.9409L56.9726 17.7974C56.6856 17.319 56.8291 16.6972 57.3075 16.4102C57.7859 16.1231 58.4077 16.2666 58.6947 16.745L58.7904 16.9363C59.0774 17.4147 58.9339 18.0366 58.4556 18.3236C58.2642 18.3714 58.0729 18.4193 57.9294 18.4193ZM9.71063 15.1186C9.47145 15.1186 9.28011 15.0229 9.08876 14.8794C8.65824 14.5445 8.6104 13.8748 8.94526 13.4443L9.08876 13.3008C9.42361 12.8703 10.0933 12.8224 10.5238 13.1573C10.9544 13.4922 11.0022 14.1619 10.6674 14.5924L10.5717 14.7359C10.2847 14.9751 9.99765 15.1186 9.71063 15.1186ZM52.8587 12.1527C52.6196 12.1527 52.3804 12.0571 52.1412 11.8657L51.9977 11.7222C51.5672 11.3395 51.5672 10.7177 51.9499 10.2871C52.3326 9.85662 52.9544 9.85662 53.3849 10.2393L53.5285 10.3828C53.9111 10.7655 53.959 11.3874 53.5763 11.8179C53.3849 12.0571 53.1458 12.1527 52.8587 12.1527ZM15.5466 9.61743C15.2118 9.61743 14.9248 9.47393 14.7334 9.18691C14.3986 8.75639 14.4942 8.08668 14.9726 7.79967L15.1639 7.65616C15.6423 7.32131 16.2642 7.46481 16.5512 7.89534C16.886 8.3737 16.7425 8.99557 16.312 9.28258L16.1685 9.37825C15.9772 9.52176 15.7858 9.61743 15.5466 9.61743ZM46.3052 7.51265C46.1617 7.51265 45.9704 7.46481 45.8268 7.41698L45.6833 7.32131C45.205 7.08213 45.0136 6.46026 45.2528 5.9819C45.492 5.50354 46.1139 5.31219 46.5922 5.55137L46.7836 5.64704C47.2619 5.88622 47.4533 6.50809 47.2141 6.98645C47.0227 7.32131 46.6879 7.51265 46.3052 7.51265ZM22.6742 5.88622C22.2437 5.88622 21.861 5.64704 21.7175 5.21652C21.5261 4.69032 21.8131 4.11629 22.3393 3.92495L22.5307 3.87711C23.0569 3.68577 23.6309 3.97278 23.8223 4.49898C24.0136 5.02518 23.7266 5.59921 23.2004 5.79055L23.0091 5.83839C22.9134 5.83839 22.7699 5.88622 22.6742 5.88622ZM38.7471 4.786C38.6993 4.786 38.6036 4.786 38.5558 4.786L38.3644 4.73816C37.8382 4.64249 37.4555 4.11629 37.599 3.54226C37.6947 3.01606 38.2209 2.63337 38.7949 2.77688L38.9863 2.82472C39.5125 2.92039 39.8952 3.49442 39.7517 4.02062C39.656 4.45114 39.2255 4.786 38.7471 4.786ZM30.5193 4.21196C29.9931 4.21196 29.5626 3.82927 29.5148 3.25524C29.4669 2.68121 29.8974 2.20285 30.4236 2.20285H30.615C31.1412 2.15501 31.6674 2.58554 31.6674 3.15957C31.7152 3.7336 31.2847 4.21196 30.7107 4.21196H30.5193C30.5671 4.21196 30.5671 4.21196 30.5193 4.21196Z" fill="white"/>
</svg>
