<svg width="56" height="194" viewBox="0 0 56 194" fill="none" xmlns="http://www.w3.org/2000/svg">
<g clip-path="url(#clip0_2403_3063)">
<path d="M5.83957 49.625L0 193.999L55.6506 193.849L52.1569 50.0752L5.83957 49.625Z" fill="#002A50"/>
<path d="M56.0322 43.8328L1.42969 43.3203L1.3708 49.6236L55.9733 50.136L56.0322 43.8328Z" fill="#002A50"/>
<path d="M12.1797 43.4215L12.4792 11.2048L27.4524 4.85156H30.9961L46.1191 11.9052L45.8196 43.7216L12.1797 43.4215Z" fill="#EDEEF0"/>
<path d="M12.5086 11.4002L12.2852 35.3125L45.9251 35.6282L46.1485 11.7159L12.5086 11.4002Z" fill="#EDEDED"/>
<path d="M27.4492 4.8525V0L30.7932 0.0500258L30.7433 4.8525H27.9982" fill="#002A50"/>
<path opacity="0.94" d="M53.0038 86.2932L4.34065 85.793L3.04297 118.66L53.8522 119.16L53.0038 86.2932Z" fill="#F7F7F8"/>
<path d="M50.0119 43.7723C50.0119 43.7723 49.962 43.5722 49.962 43.222C49.962 42.8218 49.962 42.3215 49.9121 41.6712C49.9121 40.2705 49.9121 38.3695 49.9121 35.9683L50.0618 36.1183C44.8212 36.1183 37.2347 36.0683 28.7499 36.0183C20.3149 35.9182 12.6786 35.8182 7.43792 35.7181L7.58766 35.568C7.53775 37.9193 7.48784 39.8703 7.43792 41.271C7.43792 41.8713 7.38801 42.4216 7.38801 42.8218C7.38801 43.172 7.3381 43.3721 7.3381 43.3721C7.3381 43.3721 7.28819 43.172 7.28819 42.8218C7.28819 42.4216 7.28819 41.9213 7.23828 41.271C7.23828 39.8703 7.23828 37.9693 7.23828 35.568V35.418H7.38801C12.6287 35.418 20.2151 35.468 28.7 35.518C37.1349 35.6181 44.7713 35.7181 50.0119 35.8182H50.1616V35.9683C50.1117 38.3195 50.0618 40.2705 50.0119 41.6712C50.0119 42.2715 49.962 42.8218 49.962 43.222C50.0618 43.5722 50.0618 43.7723 50.0119 43.7723Z" fill="#002A50"/>
<path d="M37.8845 43.6219C37.7348 43.6219 37.6349 41.871 37.6849 39.77C37.6849 37.6188 37.8346 35.918 37.9843 35.918C38.1341 35.918 38.2339 37.6689 38.184 39.77C38.184 41.9211 38.0342 43.6219 37.8845 43.6219Z" fill="#002A50"/>
<path d="M22.1618 43.4735C22.0121 43.4735 21.9123 41.7226 21.9622 39.6215C21.9622 37.4704 22.1119 35.7695 22.2617 35.7695C22.4114 35.7695 22.5112 37.5204 22.4613 39.6215C22.4114 41.7726 22.3116 43.4735 22.1618 43.4735Z" fill="#002A50"/>
<path d="M21.9614 35.4201C21.8117 35.4201 21.7618 30.0674 21.8117 23.464C21.8616 16.8606 22.0612 11.5078 22.1611 11.5078C22.3108 11.5078 22.3607 16.8606 22.3108 23.464C22.2609 30.0674 22.1112 35.4201 21.9614 35.4201Z" fill="#2D3536"/>
<path d="M35.188 35.5178C35.0382 35.5178 34.9883 30.165 35.0382 23.5616C35.0882 16.9582 35.2379 11.6055 35.3876 11.6055C35.5374 11.6055 35.5873 16.9582 35.5374 23.5616C35.4375 30.165 35.2878 35.5178 35.188 35.5178Z" fill="#2D3536"/>
<path d="M46.0197 23.7611C46.0197 23.8111 45.5705 23.8111 44.722 23.8611C43.7737 23.8611 42.5759 23.9112 41.1284 23.9112C38.0839 23.9612 33.8914 23.9612 29.2497 23.9612C24.6079 23.9612 20.4154 23.8611 17.3709 23.8111C14.3263 23.7111 12.4297 23.561 12.4297 23.4609C14.9252 23.4609 20.7149 23.4609 29.2497 23.511C33.8415 23.561 37.9841 23.611 41.1284 23.611C42.5759 23.661 43.7737 23.661 44.722 23.7111C45.5206 23.661 46.0197 23.7111 46.0197 23.7611Z" fill="#2D3536"/>
<path opacity="0.94" d="M1.64837 153.078L54.7036 153.578L55.5022 186.595L0.300781 185.845L1.64837 153.078Z" fill="#F7F7F8"/>
<path d="M10.6774 66.2509L8.08203 66.2266L7.98763 76.3318L10.583 76.3561L10.6774 66.2509Z" fill="#001D31"/>
<path d="M47.8649 99.1689L45.2695 99.1445L45.1751 109.25L47.7705 109.274L47.8649 99.1689Z" fill="#001D31"/>
<path d="M9.52896 132.087L6.93359 132.062L6.83919 142.168L9.43455 142.192L9.52896 132.087Z" fill="#001D31"/>
<path d="M49.8102 169.157L47.2148 169.133L47.1204 179.238L49.7158 179.262L49.8102 169.157Z" fill="#001D31"/>
</g>
<defs>
<clipPath id="clip0_2403_3063">
<rect width="56" height="194" fill="white"/>
</clipPath>
</defs>
</svg>
