<svg width="376" height="493" viewBox="0 0 376 493" fill="none" xmlns="http://www.w3.org/2000/svg">
<g clip-path="url(#clip0_2403_3089)">
<path d="M333.323 493H41.7411C28.0752 493 17 480.405 17 464.865V29.1353C17 13.5946 28.0752 1 41.7411 1H333.259C346.924 1 358 13.5946 358 29.1353V464.865C358.064 480.405 346.989 493 333.323 493Z" fill="#D3D4DB"/>
<path d="M348 23H28V455H348V23Z" fill="#F7F7F8" stroke="#F7F7F8" stroke-width="4.1239" stroke-miterlimit="10"/>
<path d="M209.041 17.864H166.635C165.533 17.864 164.625 16.958 164.625 15.8578C164.625 14.7576 165.533 13.8516 166.635 13.8516H209.041C210.143 13.8516 211.051 14.7576 211.051 15.8578C211.116 16.958 210.208 17.864 209.041 17.864Z" fill="#5D82AF"/>
<path d="M187.848 483.891C191.99 483.891 195.348 480.533 195.348 476.391C195.348 472.249 191.99 468.891 187.848 468.891C183.706 468.891 180.348 472.249 180.348 476.391C180.348 480.533 183.706 483.891 187.848 483.891Z" fill="#C2C3C9" stroke="#EDEEF0" stroke-width="0.877023" stroke-miterlimit="10"/>
<path d="M356.883 15.7909C353.316 6.53641 344.303 0 333.799 0H41.9518C31.3828 0 22.4348 6.53641 18.8686 15.7909L0 51.8383H375.816L356.883 15.7909Z" fill="#B57556"/>
<path d="M35.9922 51.8383H77.4253L96.4884 0H59.2051L35.9922 51.8383Z" fill="#EDEEF0"/>
<path d="M169.696 0H131.31L119.898 51.8383H163.471L169.696 0Z" fill="#EDEEF0"/>
<path d="M316.943 0H279.66L298.658 51.8383H340.156L316.943 0Z" fill="#EDEEF0"/>
<path d="M244.843 0H206.457L212.682 51.8383H256.255L244.843 0Z" fill="#EDEEF0"/>
<path d="M142.001 76.3715H141.353C129.487 76.3715 119.891 66.7934 119.891 54.9502V51.8438H163.463V54.9502C163.463 66.7934 153.867 76.3715 142.001 76.3715Z" fill="#D4D5D9"/>
<path d="M99.1435 76.3715H98.1709C86.6941 76.3715 77.4219 67.117 77.4219 55.6621V51.8438H119.892V55.6621C119.892 67.117 110.62 76.3715 99.1435 76.3715Z" fill="#AF7F6B"/>
<path d="M56.6709 76.3715C45.1941 76.3715 35.9219 67.117 35.9219 55.6621V51.8438H77.355V55.6621C77.4198 67.117 68.1476 76.3715 56.6709 76.3715Z" fill="#D4D5D9"/>
<path d="M17.9608 76.3715C8.04023 76.3715 0 68.3466 0 58.4449V51.8438H35.9865V58.3802C35.9865 68.3466 27.9463 76.3715 17.9608 76.3715Z" fill="#AF7F6B"/>
<path d="M234.466 76.3715C246.526 76.3715 256.253 66.6639 256.253 54.6266V51.8438H212.68V54.6266C212.68 66.6639 222.406 76.3715 234.466 76.3715Z" fill="#D4D5D9"/>
<path d="M277.453 76.3715C289.189 76.3715 298.656 66.9228 298.656 55.209V51.8438H256.25V55.209C256.25 66.9228 265.717 76.3715 277.453 76.3715Z" fill="#AF7F6B"/>
<path d="M319.211 76.3715H319.6C330.947 76.3715 340.154 67.1817 340.154 55.8562V51.8438H298.656V55.8562C298.656 67.1817 307.864 76.3715 319.211 76.3715Z" fill="#D4D5D9"/>
<path d="M357.984 76.3715C367.839 76.3715 375.815 68.4113 375.815 58.5743V51.8438H340.152V58.5743C340.152 68.4113 348.128 76.3715 357.984 76.3715Z" fill="#AF7F6B"/>
<path d="M188.039 76.3715C174.423 76.3715 163.465 65.3696 163.465 51.8438H212.679C212.679 65.3696 201.656 76.3715 188.039 76.3715Z" fill="#AF7F6B"/>
<path d="M174.214 444.654C175.499 444.654 176.541 443.612 176.541 442.327C176.541 441.042 175.499 440 174.214 440C172.929 440 171.887 441.042 171.887 442.327C171.887 443.612 172.929 444.654 174.214 444.654Z" fill="#9A999E"/>
<path opacity="0.55" d="M187.636 444.654C188.921 444.654 189.963 443.612 189.963 442.327C189.963 441.042 188.921 440 187.636 440C186.35 440 185.309 441.042 185.309 442.327C185.309 443.612 186.35 444.654 187.636 444.654Z" fill="#9A999E"/>
<path opacity="0.35" d="M201.054 444.654C202.339 444.654 203.381 443.612 203.381 442.327C203.381 441.042 202.339 440 201.054 440C199.768 440 198.727 441.042 198.727 442.327C198.727 443.612 199.768 444.654 201.054 444.654Z" fill="#9A999E"/>
<path d="M115.495 191.377L117.253 194.962C117.33 195.191 117.559 195.343 117.788 195.343L121.762 195.953C122.373 196.03 122.603 196.793 122.144 197.174L119.24 199.996C119.087 200.149 119.011 200.377 119.011 200.606L119.699 204.573C119.775 205.183 119.164 205.64 118.629 205.335L115.037 203.505C114.808 203.428 114.578 203.428 114.349 203.505L110.757 205.335C110.222 205.64 109.611 205.183 109.688 204.573L110.375 200.606C110.452 200.377 110.375 200.149 110.146 199.996L107.242 197.174C106.784 196.793 107.013 196.03 107.624 195.953L111.598 195.343C111.827 195.343 112.057 195.191 112.133 194.962L113.891 191.377C114.502 190.843 115.266 190.843 115.495 191.377Z" fill="#DFC960"/>
<path d="M115.495 148.674L117.253 152.259C117.33 152.488 117.559 152.64 117.788 152.64L121.762 153.25C122.373 153.327 122.603 154.089 122.144 154.471L119.24 157.293C119.087 157.445 119.011 157.674 119.011 157.903L119.699 161.869C119.775 162.48 119.164 162.937 118.629 162.632L115.037 160.802C114.808 160.725 114.578 160.725 114.349 160.802L110.757 162.632C110.222 162.937 109.611 162.48 109.688 161.869L110.375 157.903C110.452 157.674 110.375 157.445 110.146 157.293L107.242 154.471C106.784 154.089 107.013 153.327 107.624 153.25L111.598 152.64C111.827 152.64 112.057 152.488 112.133 152.259L113.891 148.674C114.502 148.14 115.266 148.14 115.495 148.674Z" fill="#DFC960"/>
<path d="M138.249 309.345C160.478 309.345 178.498 291.359 178.498 269.172C178.498 246.986 160.478 229 138.249 229C116.02 229 98 246.986 98 269.172C98 291.359 116.02 309.345 138.249 309.345Z" fill="#BED3E5"/>
<path d="M165.989 280.946L155.903 272.892L153.24 270.798C153.966 269.59 154.289 268.221 154.289 266.771C154.289 262.261 150.658 258.637 146.139 258.637C141.621 258.637 137.99 262.261 137.99 266.771C137.99 267.013 137.99 267.335 138.07 267.576H131.454C131.292 267.576 131.212 267.657 131.05 267.737L117.494 280.462C117.252 280.704 117.252 281.026 117.494 281.268C117.575 281.348 117.736 281.429 117.898 281.429C118.059 281.429 118.14 281.348 118.301 281.268L118.543 281.026V288.435C118.543 288.758 118.785 288.999 119.108 288.999H133.309H142.186H146.301H155.5H164.537C164.86 288.999 165.102 288.758 165.102 288.435V281.59L165.344 281.751C165.425 281.831 165.586 281.912 165.667 281.912C165.828 281.912 165.989 281.831 166.07 281.67C166.312 281.509 166.231 281.187 165.989 280.946ZM156.145 277.805L159.615 280.543H156.145V277.805ZM139.119 266.852C139.119 262.986 142.266 259.845 146.139 259.845C150.013 259.845 153.159 262.986 153.159 266.852C153.159 267.979 152.837 269.187 152.353 270.154L149.286 267.737C149.206 267.737 149.206 267.657 149.125 267.657C149.044 267.657 149.044 267.657 148.964 267.657H139.2C139.119 267.335 139.119 267.093 139.119 266.852ZM138.474 279.899L130.889 273.939H132.422L140.491 279.899H138.474ZM133.713 279.335L133.309 279.013L127.419 273.939H129.033L136.618 279.899H134.278L133.713 279.335ZM140.572 268.784L135.811 272.811H134.197L138.958 268.784H140.572ZM138.474 276.999L136.618 275.63V274.019H138.474V276.999ZM135.407 274.744L134.278 273.939H135.407V274.744ZM137.505 272.811L142.105 268.945C142.186 268.865 142.186 268.865 142.266 268.784H143.638L138.877 272.811H137.505ZM139.603 277.805V273.939H141.701V279.335L139.603 277.805ZM142.024 272.811H140.491L145.09 268.945C145.171 268.865 145.171 268.865 145.252 268.784H147.269L142.024 272.811ZM132.422 272.811H130.808L135.407 268.945C135.488 268.865 135.488 268.865 135.569 268.784H137.263L132.422 272.811ZM131.696 268.784H133.794L129.033 272.811H127.338L131.696 268.784ZM126.209 283.523C125.644 283.523 125.16 284.006 125.16 284.57V287.872H119.673V279.979L125.967 274.1L132.745 280.06V287.952H127.258V284.65C127.338 284.006 126.854 283.523 126.209 283.523ZM133.874 281.026C133.955 281.026 134.036 281.026 134.116 281.026H138.312H141.701V287.872H133.874V281.026ZM148.964 280.946C148.076 280.946 147.269 281.67 147.269 282.637V287.952H146.381H142.831V273.697L148.964 268.945L155.096 273.697V281.187V288.033H150.658V282.717C150.577 281.67 149.851 280.946 148.964 280.946ZM163.972 287.952H156.145V281.67H163.972V287.952ZM161.471 280.543C161.39 280.543 161.39 280.543 161.471 280.543L156.145 276.355V274.503L163.73 280.543H161.471Z" fill="#002A50"/>
<path d="M162.277 284.326C162.277 283.924 161.954 283.602 161.55 283.602C161.147 283.602 160.824 283.924 160.824 284.326V285.776H162.357V284.326H162.277Z" fill="#002A50"/>
<path d="M159.374 284.326C159.374 283.924 159.052 283.602 158.648 283.602C158.245 283.602 157.922 283.924 157.922 284.326V285.776H159.455V284.326H159.374Z" fill="#002A50"/>
<path d="M139.199 283.52C138.795 283.52 138.473 283.842 138.473 284.244V285.694H140.006V284.244C140.006 283.842 139.683 283.52 139.199 283.52Z" fill="#002A50"/>
<path d="M148.965 275.789C148.561 275.789 148.238 276.111 148.238 276.514V277.964H149.771V276.514C149.691 276.111 149.368 275.789 148.965 275.789Z" fill="#002A50"/>
<path d="M146.464 275.789C146.061 275.789 145.738 276.111 145.738 276.514V277.964H147.271V276.514C147.191 276.111 146.868 275.789 146.464 275.789Z" fill="#002A50"/>
<path d="M152.117 276.592C152.117 276.189 151.794 275.867 151.39 275.867C150.987 275.867 150.664 276.189 150.664 276.592V278.042H152.197V276.592H152.117Z" fill="#002A50"/>
<path d="M136.375 283.52C135.971 283.52 135.648 283.842 135.648 284.244V285.694H137.182V284.244C137.101 283.842 136.778 283.52 136.375 283.52Z" fill="#002A50"/>
<path d="M130.234 284.326C130.234 283.924 129.911 283.602 129.507 283.602C129.104 283.602 128.781 283.924 128.781 284.326V285.776H130.314V284.326H130.234Z" fill="#002A50"/>
<path d="M122.66 283.52C122.256 283.52 121.934 283.842 121.934 284.244V285.694H123.467V284.244C123.386 283.842 123.063 283.52 122.66 283.52Z" fill="#002A50"/>
<path d="M136.467 257.023C136.386 256.943 131.545 251.144 124.686 254.446C126.058 252.916 127.994 253.319 128.156 253.319C128.398 253.399 128.72 253.158 128.801 252.916C128.882 252.674 128.64 252.352 128.398 252.272C127.752 252.111 126.865 252.191 125.977 252.433C127.833 250.822 130.011 251.064 130.092 251.064C130.415 251.144 130.657 250.903 130.657 250.661C130.738 250.339 130.496 250.097 130.254 250.097C130.254 250.097 128.478 249.856 126.622 250.822C128.962 249.05 131.787 249.05 131.948 249.05C132.271 249.05 132.513 248.809 132.513 248.567C132.513 248.245 132.271 248.003 132.029 248.003C129.285 247.923 124.363 249.292 122.991 254.768C121.62 249.292 116.697 247.923 113.954 248.003C113.631 248.003 113.47 248.245 113.47 248.567C113.47 248.889 113.712 249.05 114.035 249.05C114.196 249.05 117.101 249.05 119.36 250.822C117.504 249.856 115.729 250.097 115.729 250.178C115.406 250.258 115.245 250.5 115.326 250.742C115.406 251.064 115.648 251.225 115.891 251.144C116.052 251.144 118.15 250.822 120.086 252.513C119.199 252.191 118.231 252.191 117.666 252.352C117.424 252.433 117.182 252.674 117.262 252.997C117.343 253.238 117.585 253.48 117.908 253.399C117.989 253.399 120.329 252.997 121.7 255.01C114.438 250.742 109.193 257.023 109.112 257.104C108.951 257.346 108.951 257.668 109.193 257.829C109.274 257.909 109.435 257.909 109.516 257.909C109.677 257.909 109.839 257.829 109.919 257.748C110.081 257.587 112.259 254.93 115.729 254.607C113.308 255.332 112.098 257.185 112.098 257.265C111.937 257.507 112.017 257.829 112.259 257.99C112.34 258.07 112.421 258.07 112.502 258.07C112.663 258.07 112.824 257.99 112.905 257.829C112.986 257.668 114.357 255.574 117.262 255.413C116.213 255.896 115.568 256.701 115.164 257.346C115.003 257.587 115.084 257.909 115.326 258.07C115.406 258.151 115.487 258.151 115.568 258.151C115.729 258.151 115.891 258.07 116.052 257.909C116.133 257.748 117.827 254.93 121.458 256.379C114.277 257.668 114.519 264.675 114.599 264.755C114.599 264.997 114.842 265.238 115.084 265.238C115.406 265.238 115.568 264.997 115.568 264.675C115.568 264.513 115.487 262.339 116.778 260.326C116.213 261.856 116.455 263.144 116.455 263.144C116.536 263.386 116.697 263.547 116.94 263.547H117.02C117.262 263.466 117.504 263.225 117.424 262.983C117.424 262.903 117.101 261.131 118.392 259.52C118.231 260.245 118.231 260.97 118.311 261.453C118.392 261.695 118.553 261.856 118.795 261.856H118.876C119.118 261.775 119.36 261.534 119.28 261.211C119.28 261.131 118.715 258.393 121.781 257.346H121.862C121.781 257.99 121.62 258.634 121.62 259.279C121.62 259.52 121.62 259.681 121.781 259.842C121.781 259.842 121.942 260.003 122.184 260.003V276.272C122.184 276.594 122.427 276.755 122.669 276.755C122.911 276.755 123.153 276.513 123.153 276.272V260.003C123.314 259.923 123.476 259.842 123.556 259.842C123.718 259.681 123.718 259.44 123.718 259.279C123.718 258.715 123.637 258.232 123.556 257.668C123.637 257.587 123.718 257.426 123.718 257.346V257.265C123.798 257.265 123.879 257.265 123.96 257.265C124.04 257.265 124.121 257.346 124.202 257.346C127.268 258.393 126.703 261.05 126.703 261.211C126.622 261.453 126.784 261.775 127.107 261.856H127.187C127.429 261.856 127.671 261.695 127.671 261.453C127.752 260.97 127.833 260.245 127.591 259.52C128.882 261.131 128.559 262.903 128.559 262.983C128.478 263.225 128.72 263.547 128.962 263.547H129.043C129.285 263.547 129.527 263.386 129.527 263.144C129.527 263.144 129.769 261.856 129.205 260.326C130.496 262.258 130.415 264.513 130.415 264.675C130.415 264.997 130.657 265.238 130.899 265.238C131.141 265.238 131.383 264.997 131.383 264.755C131.383 264.675 131.625 257.426 124.121 256.379C127.671 255.091 129.285 257.909 129.366 257.99C129.447 258.151 129.608 258.232 129.85 258.232C129.931 258.232 130.011 258.232 130.092 258.151C130.334 257.99 130.415 257.668 130.254 257.426C129.931 256.782 129.205 255.977 128.156 255.493C131.06 255.735 132.432 257.829 132.513 257.909C132.594 258.07 132.755 258.151 132.916 258.151C132.997 258.151 133.078 258.151 133.158 258.07C133.4 257.909 133.481 257.587 133.32 257.346C133.32 257.346 132.109 255.493 129.689 254.688C133.158 255.091 135.418 257.668 135.498 257.829C135.579 257.99 135.741 257.99 135.902 257.99C135.983 257.99 136.144 257.99 136.225 257.909C136.628 257.507 136.628 257.185 136.467 257.023Z" fill="#002A50"/>
<path d="M238.749 309.345C260.978 309.345 278.998 291.359 278.998 269.172C278.998 246.986 260.978 229 238.749 229C216.52 229 198.5 246.986 198.5 269.172C198.5 291.359 216.52 309.345 238.749 309.345Z" fill="#BED3E5"/>
<path d="M262.939 273.53C262.6 272.938 262.092 272.346 261.668 271.754C262.007 270.823 261.753 269.808 261.075 268.963C260.99 268.794 260.821 268.624 260.651 268.54C260.312 268.117 259.804 267.779 259.211 267.61C258.702 267.44 258.109 267.44 257.516 267.61L256.584 267.948C256.245 267.779 255.906 267.61 255.483 267.44C255.906 267.018 256.415 266.256 256.415 265.411C256.499 264.734 256.245 264.142 255.737 263.55C255.059 262.873 254.127 262.451 253.195 262.451L242.518 262.873C241.417 262.873 240.23 263.55 240.23 264.903C240.23 266.595 241.332 267.779 242.264 267.948C243.196 269.216 243.704 270.823 243.704 272.599C243.704 273.53 243.62 274.46 243.365 275.39C243.281 275.813 242.857 276.067 242.433 276.067H232.096C231.672 275.898 229.893 273.783 228.622 271.584C228.537 271.415 228.452 270.485 230.401 265.58C232.011 261.351 232.774 257.799 232.604 255.6L234.045 254.416C234.214 254.754 234.468 255.008 234.807 255.177C234.892 255.177 234.977 255.262 235.146 255.262C235.4 255.262 235.57 255.177 235.739 255.008C236.333 254.501 236.587 253.317 236.332 252.302C236.163 251.625 235.824 251.118 235.4 251.033C235.061 250.949 234.723 251.033 234.468 251.202C233.875 251.625 233.621 252.64 233.79 253.655L232.435 254.754V254.67C231.926 252.978 230.401 251.287 228.028 251.287C227.69 251.287 227.435 251.287 227.096 251.371C226.08 251.541 224.978 253.148 224.978 255.262C224.978 257.292 225.741 258.898 226.842 259.068C226.927 259.068 226.927 259.068 227.012 259.068C227.012 259.068 227.774 259.068 228.113 258.983C228.452 258.898 228.876 258.814 229.215 258.729C228.113 261.182 225.063 268.202 223.876 271.331C223.792 271.5 223.792 271.584 223.792 271.754C222.012 271.415 220.233 271.584 218.623 272.346C217.013 273.022 215.572 274.206 214.64 275.644C214.471 275.898 214.471 276.236 214.556 276.49C214.64 276.743 214.895 276.997 215.149 276.997L216.928 277.42C215.827 279.027 215.657 281.057 216.25 282.833C216.928 284.609 218.369 286.047 220.233 286.639C222.097 287.231 224.131 286.808 225.656 285.708C227.181 284.524 228.113 282.748 228.113 280.803C228.113 280.634 228.113 280.465 228.113 280.296L229.808 280.718C230.062 280.803 230.401 280.718 230.571 280.549C230.825 280.38 230.909 280.126 230.909 279.873H248.704C248.45 281.649 248.958 283.425 250.06 284.778C251.246 286.131 252.941 286.892 254.72 286.892C256.499 286.892 258.194 286.131 259.38 284.778C260.567 283.425 261.075 281.564 260.736 279.873H263.193C263.532 279.873 263.787 279.703 264.041 279.534C264.295 279.281 264.38 279.027 264.38 278.689C264.464 276.997 263.871 275.137 262.939 273.53ZM234.977 251.963C234.977 251.963 235.061 251.879 235.146 251.879C235.316 251.963 235.485 252.133 235.57 252.64C235.739 253.401 235.57 254.247 235.231 254.501C235.146 254.585 235.061 254.585 235.061 254.585C234.892 254.501 234.723 254.332 234.638 253.824C234.468 253.063 234.638 252.217 234.977 251.963ZM257.77 268.371C258.194 268.286 258.618 268.286 258.957 268.371C259.38 268.455 259.719 268.709 259.973 269.047C260.143 269.216 260.228 269.386 260.397 269.47C260.821 269.978 260.99 270.485 260.99 271.077C259.974 270.062 258.787 269.216 257.516 268.54L257.77 268.371ZM241.078 264.988C241.078 263.973 242.01 263.719 242.518 263.719L253.195 263.296C253.957 263.296 254.635 263.55 255.144 264.142C255.483 264.565 255.652 264.988 255.652 265.411C255.567 266.256 254.889 266.933 254.635 267.187H242.518C242.01 267.271 241.078 266.426 241.078 264.988ZM225.825 255.431C225.825 254.078 226.419 252.978 226.927 252.555C227.096 254.501 227.096 256.446 226.842 258.391C226.249 257.968 225.825 256.869 225.825 255.431ZM227.351 281.057C227.351 282.748 226.503 284.355 225.148 285.37C223.792 286.385 222.012 286.639 220.318 286.131C218.708 285.624 217.437 284.355 216.928 282.664C216.42 281.057 216.674 279.281 217.691 277.927L220.911 278.773C220.233 279.027 219.724 279.619 219.47 280.296C219.216 280.972 219.301 281.733 219.64 282.325C219.979 282.917 220.572 283.425 221.25 283.594C221.928 283.763 222.69 283.678 223.283 283.256C223.876 282.833 224.3 282.241 224.385 281.564C224.47 280.888 224.3 280.126 223.876 279.534L227.096 280.38C227.351 280.549 227.351 280.803 227.351 281.057ZM223.792 281.057C223.792 281.564 223.622 281.987 223.283 282.325C222.944 282.664 222.521 282.833 222.012 282.833C221.504 282.833 221.08 282.664 220.741 282.325C220.402 281.987 220.233 281.564 220.233 281.057C220.233 280.549 220.402 280.126 220.741 279.788C221.08 279.45 221.504 279.281 222.012 279.281C222.521 279.281 222.944 279.45 223.283 279.788C223.622 280.126 223.792 280.634 223.792 281.057ZM230.147 280.211H230.062L227.774 279.619L217.691 277.082L215.318 276.49C215.318 276.49 215.234 276.49 215.234 276.405V276.321C216.166 274.967 217.437 273.868 218.962 273.191C220.487 272.599 222.182 272.43 223.792 272.853C223.876 273.022 223.961 273.107 224.046 273.191C225.741 274.967 227.435 277.589 228.283 278.942C228.706 279.534 229.3 279.957 230.062 280.042C230.147 280.126 230.147 280.126 230.147 280.211C230.232 280.126 230.147 280.126 230.147 280.211ZM260.143 281.057C260.143 282.579 259.55 284.017 258.364 284.947C257.262 285.962 255.737 286.469 254.296 286.3C252.771 286.131 251.415 285.37 250.568 284.186C249.636 283.002 249.297 281.48 249.551 280.042H252.432C252.093 280.803 252.178 281.733 252.686 282.41C253.195 283.086 253.957 283.509 254.805 283.509C255.652 283.509 256.415 283.086 256.923 282.41C257.431 281.733 257.516 280.803 257.177 280.042H260.058C260.058 280.465 260.143 280.718 260.143 281.057ZM256.245 280.126C256.499 280.465 256.584 280.888 256.499 281.31C256.415 281.733 256.245 282.156 255.906 282.41C255.567 282.664 255.144 282.833 254.72 282.833C254.296 282.833 253.873 282.664 253.534 282.41C253.195 282.156 253.025 281.733 252.941 281.31C252.856 280.888 252.941 280.465 253.195 280.126H256.245ZM263.617 279.196C263.532 279.281 263.448 279.281 263.363 279.281H230.571C229.977 279.281 229.469 279.027 229.13 278.519C228.283 277.082 226.503 274.46 224.809 272.684C224.639 272.43 224.554 272.176 224.639 271.923C226.08 268.032 230.401 258.476 230.401 258.476C230.486 258.306 230.401 258.137 230.316 258.053C230.232 257.968 230.062 257.884 229.893 257.968C229.808 257.968 229.723 258.053 229.638 258.053C229.13 258.306 228.537 258.391 228.028 258.56C227.859 258.56 227.774 258.56 227.605 258.645C227.859 256.53 227.944 254.501 227.69 252.386C227.859 252.386 227.944 252.386 228.113 252.386C229.977 252.386 231.333 253.824 231.757 255.177C232.35 257.038 231.587 260.844 229.808 265.58C227.859 270.654 227.859 271.754 228.113 272.261C228.791 273.361 229.554 274.46 230.316 275.475C231.672 277.166 232.011 277.166 232.265 277.166H242.603C243.027 277.166 243.365 276.997 243.704 276.828C244.043 276.574 244.213 276.236 244.298 275.898C244.552 274.967 244.637 273.953 244.637 272.938C244.637 271.162 244.213 269.639 243.365 268.286H254.805C257.601 269.47 259.55 270.908 260.906 272.346L260.99 272.43C263.363 275.052 263.787 277.758 263.787 279.196C263.787 279.027 263.702 279.111 263.617 279.196Z" fill="#002A50"/>
<path d="M230.147 280.211H230.062L227.774 279.619L217.691 277.082L215.318 276.49C215.318 276.49 215.234 276.49 215.234 276.405V276.321C216.166 274.967 217.437 273.868 218.962 273.191C220.487 272.599 222.182 272.43 223.792 272.853C223.876 273.022 223.961 273.107 224.046 273.191C225.741 274.967 227.435 277.589 228.283 278.942C228.706 279.534 229.3 279.957 230.062 280.042C230.147 280.126 230.147 280.126 230.147 280.211ZM230.147 280.211C230.232 280.126 230.147 280.126 230.147 280.211ZM262.939 273.53C262.6 272.938 262.092 272.346 261.668 271.754C262.007 270.823 261.753 269.808 261.075 268.963C260.99 268.794 260.821 268.624 260.651 268.54C260.312 268.117 259.804 267.779 259.211 267.61C258.702 267.44 258.109 267.44 257.516 267.61L256.584 267.948C256.245 267.779 255.906 267.61 255.483 267.44C255.906 267.018 256.415 266.256 256.415 265.411C256.499 264.734 256.245 264.142 255.737 263.55C255.059 262.873 254.127 262.451 253.195 262.451L242.518 262.873C241.417 262.873 240.23 263.55 240.23 264.903C240.23 266.595 241.332 267.779 242.264 267.948C243.196 269.216 243.704 270.823 243.704 272.599C243.704 273.53 243.62 274.46 243.365 275.39C243.281 275.813 242.857 276.067 242.433 276.067H232.096C231.672 275.898 229.893 273.783 228.622 271.584C228.537 271.415 228.452 270.485 230.401 265.58C232.011 261.351 232.774 257.799 232.604 255.6L234.045 254.416C234.214 254.754 234.468 255.008 234.807 255.177C234.892 255.177 234.977 255.262 235.146 255.262C235.4 255.262 235.57 255.177 235.739 255.008C236.332 254.501 236.587 253.317 236.332 252.302C236.163 251.625 235.824 251.118 235.4 251.033C235.061 250.949 234.723 251.033 234.468 251.202C233.875 251.625 233.621 252.64 233.79 253.655L232.435 254.754V254.67C231.926 252.978 230.401 251.287 228.028 251.287C227.69 251.287 227.435 251.287 227.096 251.371C226.08 251.541 224.978 253.148 224.978 255.262C224.978 257.292 225.741 258.898 226.842 259.068C226.927 259.068 226.927 259.068 227.012 259.068C227.012 259.068 227.774 259.068 228.113 258.983C228.452 258.898 228.876 258.814 229.215 258.729C228.113 261.182 225.063 268.202 223.876 271.331C223.792 271.5 223.792 271.584 223.792 271.754C222.012 271.415 220.233 271.584 218.623 272.346C217.013 273.022 215.572 274.206 214.64 275.644C214.471 275.898 214.471 276.236 214.556 276.49C214.64 276.743 214.895 276.997 215.149 276.997L216.928 277.42C215.827 279.027 215.657 281.057 216.25 282.833C216.928 284.609 218.369 286.047 220.233 286.639C222.097 287.231 224.131 286.808 225.656 285.708C227.181 284.524 228.113 282.748 228.113 280.803C228.113 280.634 228.113 280.465 228.113 280.296L229.808 280.718C230.062 280.803 230.401 280.718 230.571 280.549C230.825 280.38 230.909 280.126 230.909 279.873H248.704C248.45 281.649 248.958 283.425 250.06 284.778C251.246 286.131 252.941 286.892 254.72 286.892C256.499 286.892 258.194 286.131 259.38 284.778C260.567 283.425 261.075 281.564 260.736 279.873H263.193C263.532 279.873 263.787 279.703 264.041 279.534C264.295 279.281 264.38 279.027 264.38 278.689C264.464 276.997 263.871 275.137 262.939 273.53ZM234.977 251.963C234.977 251.963 235.061 251.879 235.146 251.879C235.316 251.963 235.485 252.133 235.57 252.64C235.739 253.401 235.57 254.247 235.231 254.501C235.146 254.585 235.061 254.585 235.061 254.585C234.892 254.501 234.723 254.332 234.638 253.824C234.468 253.063 234.638 252.217 234.977 251.963ZM257.77 268.371C258.194 268.286 258.618 268.286 258.957 268.371C259.38 268.455 259.719 268.709 259.973 269.047C260.143 269.216 260.228 269.386 260.397 269.47C260.821 269.978 260.99 270.485 260.99 271.077C259.974 270.062 258.787 269.216 257.516 268.54L257.77 268.371ZM241.078 264.988C241.078 263.973 242.01 263.719 242.518 263.719L253.195 263.296C253.957 263.296 254.635 263.55 255.144 264.142C255.483 264.565 255.652 264.988 255.652 265.411C255.567 266.256 254.889 266.933 254.635 267.187H242.518C242.01 267.271 241.078 266.426 241.078 264.988ZM225.825 255.431C225.825 254.078 226.419 252.978 226.927 252.555C227.096 254.501 227.096 256.446 226.842 258.391C226.249 257.968 225.825 256.869 225.825 255.431ZM227.351 281.057C227.351 282.748 226.503 284.355 225.148 285.37C223.792 286.385 222.012 286.639 220.318 286.131C218.708 285.624 217.437 284.355 216.928 282.664C216.42 281.057 216.674 279.281 217.691 277.927L220.911 278.773C220.233 279.027 219.724 279.619 219.47 280.296C219.216 280.972 219.301 281.733 219.64 282.325C219.979 282.917 220.572 283.425 221.25 283.594C221.928 283.763 222.69 283.678 223.283 283.256C223.876 282.833 224.3 282.241 224.385 281.564C224.47 280.888 224.3 280.126 223.876 279.534L227.096 280.38C227.351 280.549 227.351 280.803 227.351 281.057ZM223.792 281.057C223.792 281.564 223.622 281.987 223.283 282.325C222.944 282.664 222.521 282.833 222.012 282.833C221.504 282.833 221.08 282.664 220.741 282.325C220.402 281.987 220.233 281.564 220.233 281.057C220.233 280.549 220.402 280.126 220.741 279.788C221.08 279.45 221.504 279.281 222.012 279.281C222.521 279.281 222.944 279.45 223.283 279.788C223.622 280.126 223.792 280.634 223.792 281.057ZM260.143 281.057C260.143 282.579 259.55 284.017 258.364 284.947C257.262 285.962 255.737 286.469 254.296 286.3C252.771 286.131 251.415 285.37 250.568 284.186C249.636 283.002 249.297 281.48 249.551 280.042H252.432C252.093 280.803 252.178 281.733 252.686 282.41C253.195 283.086 253.957 283.509 254.805 283.509C255.652 283.509 256.415 283.086 256.923 282.41C257.431 281.733 257.516 280.803 257.177 280.042H260.058C260.058 280.465 260.143 280.718 260.143 281.057ZM256.245 280.126C256.499 280.465 256.584 280.888 256.499 281.31C256.415 281.733 256.245 282.156 255.906 282.41C255.567 282.664 255.144 282.833 254.72 282.833C254.296 282.833 253.873 282.664 253.534 282.41C253.195 282.156 253.025 281.733 252.941 281.31C252.856 280.888 252.941 280.465 253.195 280.126H256.245ZM263.617 279.196C263.532 279.281 263.448 279.281 263.363 279.281H230.571C229.977 279.281 229.469 279.027 229.13 278.519C228.283 277.082 226.503 274.46 224.809 272.684C224.639 272.43 224.554 272.176 224.639 271.923C226.08 268.032 230.401 258.476 230.401 258.476C230.486 258.306 230.401 258.137 230.316 258.053C230.232 257.968 230.062 257.884 229.893 257.968C229.808 257.968 229.723 258.053 229.638 258.053C229.13 258.306 228.537 258.391 228.028 258.56C227.859 258.56 227.774 258.56 227.605 258.645C227.859 256.53 227.944 254.501 227.69 252.386C227.859 252.386 227.944 252.386 228.113 252.386C229.977 252.386 231.333 253.824 231.757 255.177C232.35 257.038 231.587 260.844 229.808 265.58C227.859 270.654 227.859 271.754 228.113 272.261C228.791 273.361 229.554 274.46 230.316 275.475C231.672 277.166 232.011 277.166 232.265 277.166H242.603C243.027 277.166 243.365 276.997 243.704 276.828C244.043 276.574 244.213 276.236 244.298 275.898C244.552 274.967 244.637 273.953 244.637 272.938C244.637 271.162 244.213 269.639 243.365 268.286H254.805C257.601 269.47 259.55 270.908 260.906 272.346L260.99 272.43C263.363 275.052 263.787 277.758 263.787 279.196C263.787 279.027 263.702 279.111 263.617 279.196Z" stroke="#002A50" stroke-width="0.513029" stroke-miterlimit="10"/>
<path d="M254.292 270.062H248.021C247.767 270.062 247.598 270.232 247.598 270.485C247.598 270.739 247.767 270.908 248.021 270.908H254.292C254.546 270.908 254.715 270.739 254.715 270.485C254.631 270.232 254.461 270.062 254.292 270.062Z" fill="#002A50" stroke="#002A50" stroke-width="0.513029" stroke-miterlimit="10"/>
<path d="M254.292 272.008H248.021C247.767 272.008 247.598 272.177 247.598 272.431C247.598 272.684 247.767 272.854 248.021 272.854H254.292C254.546 272.854 254.715 272.684 254.715 272.431C254.715 272.177 254.461 272.008 254.292 272.008Z" fill="#002A50" stroke="#002A50" stroke-width="0.513029" stroke-miterlimit="10"/>
<path d="M215.145 251.543L220.313 254.165" stroke="#002A50" stroke-width="1.11608" stroke-miterlimit="10" stroke-linecap="round" stroke-linejoin="round"/>
<path d="M215.145 259.149L220.313 256.527" stroke="#002A50" stroke-width="1.11608" stroke-miterlimit="10" stroke-linecap="round" stroke-linejoin="round"/>
<path d="M138.249 405.688C160.478 405.688 178.498 387.703 178.498 365.516C178.498 343.329 160.478 325.344 138.249 325.344C116.02 325.344 98 343.329 98 365.516C98 387.703 116.02 405.688 138.249 405.688Z" fill="#BED3E5"/>
<path d="M158.486 354.667C158.402 354.667 158.486 354.667 158.486 354.667C158.402 354.497 158.402 354.497 158.318 354.412C158.318 354.412 158.318 354.412 158.234 354.327C158.15 354.242 158.066 354.242 157.982 354.157L152.688 351.779C153.108 351.1 153.444 350.335 153.528 349.486C153.696 347.363 152.268 345.494 150.083 344.9C148.402 344.39 146.469 344.815 144.537 346.004C143.948 346.343 143.36 346.853 142.772 347.363L138.822 345.579C138.57 345.494 138.402 345.494 138.15 345.579L134.285 347.363C132.52 345.834 130.503 344.73 128.486 344.73C127.982 344.73 127.478 344.815 126.974 344.9C124.789 345.494 123.36 347.363 123.528 349.486C123.612 350.335 123.864 351.1 124.369 351.779L119.075 354.157C118.99 354.157 118.906 354.242 118.822 354.327C118.822 354.327 118.822 354.327 118.738 354.412C118.654 354.497 118.654 354.497 118.654 354.582V354.667C118.654 354.752 118.57 354.837 118.57 354.922V377.26C118.57 377.599 118.738 377.854 119.075 378.024L138.234 386.603C138.318 386.603 138.402 386.688 138.57 386.688C138.738 386.688 138.738 386.687 138.906 386.603L158.066 378.024C158.402 377.854 158.57 377.599 158.57 377.26V354.922C158.486 354.837 158.486 354.752 158.486 354.667ZM137.73 364.095V384.564L129.411 380.827V360.358L137.73 364.095ZM138.57 362.651L130.671 359.084L137.226 356.196C137.478 356.196 137.814 356.281 138.066 356.281H138.486H138.906C139.159 356.281 139.495 356.196 139.747 356.196L146.301 359.084L138.57 362.651ZM148.486 358.149L143.192 355.856C144.369 355.686 145.545 355.516 146.722 355.262C147.814 355.007 149.831 354.327 151.427 353.138L155.629 355.007L148.486 358.149ZM145.461 347.448C146.554 346.768 147.646 346.343 148.57 346.343C148.906 346.343 149.243 346.428 149.579 346.513C150.755 346.853 151.932 347.872 151.848 349.401C151.764 351.44 148.906 352.883 146.385 353.563C144.201 354.073 141.932 354.327 139.747 354.497C140.503 352.374 142.772 349.146 145.461 347.448ZM138.57 347.278L141.511 348.637C140.251 349.996 139.243 351.524 138.57 352.968C137.898 351.524 136.89 349.996 135.629 348.637L138.57 347.278ZM127.478 346.513C127.814 346.428 128.15 346.343 128.486 346.343C132.1 346.343 136.133 351.27 137.394 354.497C135.125 354.327 132.856 354.157 130.755 353.563C128.15 352.883 125.377 351.44 125.293 349.401C125.209 347.872 126.301 346.853 127.478 346.513ZM125.713 353.053C127.226 354.242 129.243 354.922 130.419 355.177C131.596 355.431 132.772 355.686 133.948 355.771L128.654 358.064L121.511 354.837L125.713 353.053ZM120.251 356.281L127.73 359.678V380.148L120.251 376.75V356.281ZM139.411 364.095L147.73 360.358V380.827L139.411 384.564V364.095ZM149.411 380.148V359.678L156.89 356.281V376.75L149.411 380.148Z" fill="#002A50"/>
<path d="M238.749 405.688C260.978 405.688 278.998 387.703 278.998 365.516C278.998 343.329 260.978 325.344 238.749 325.344C216.52 325.344 198.5 343.329 198.5 365.516C198.5 387.703 216.52 405.688 238.749 405.688Z" fill="#BED3E5"/>
<path d="M256.408 376.569H248.793L244.002 368.371L244.173 368.115C244.857 367.261 245.456 366.492 245.456 365.724C245.456 365.211 245.371 363.418 245.285 362.991L244.857 359.746C244.772 359.319 244.772 358.977 244.772 358.55V354.878C244.772 353.768 244.258 352.743 243.403 352.06C244.515 351.377 245.285 350.181 245.456 348.9C245.627 347.619 245.2 346.253 244.258 345.314C243.317 344.374 242.034 343.862 240.665 344.033C239.381 344.203 238.184 344.887 237.413 345.997C236.729 347.107 236.558 348.473 236.986 349.754C237.413 351.035 238.355 351.975 239.638 352.402C238.526 353.597 237.756 355.049 237.242 356.671L236.301 355.134C236.13 354.793 235.617 354.622 235.274 354.878C234.932 355.049 234.847 355.476 235.018 355.817L236.815 358.892C236.815 359.233 236.729 359.66 236.729 360.002V361.368C236.729 363.418 237.242 365.382 238.355 367.09L238.526 367.346C238.782 367.773 238.954 368.286 238.954 368.798V373.836C238.954 374.434 238.697 374.947 238.355 375.374L237.242 376.484H232.109C229.114 376.484 226.034 375.971 223.21 375.032L220.815 374.263C220.13 374.093 219.36 374.263 218.761 374.69C218.248 375.203 217.991 375.886 218.077 376.655C218.248 377.338 218.761 377.936 219.446 378.192L222.783 379.302C224.323 379.814 225.777 380.156 227.403 380.412C226.376 381.095 225.093 381.437 223.895 381.351C222.44 381.351 221.071 380.924 219.959 380.156C218.59 379.217 216.964 378.704 215.253 378.79V380.241C216.708 380.241 218.077 380.668 219.189 381.437C220.558 382.376 222.269 382.889 223.895 382.803C225.606 382.803 227.232 382.376 228.601 381.437C229.799 380.583 231.168 380.241 232.536 380.241C233.991 380.241 235.36 380.668 236.472 381.437C237.841 382.376 239.467 382.889 241.178 382.803C242.889 382.803 244.515 382.376 245.884 381.437C246.226 381.181 246.654 381.01 246.996 380.839H248.708L249.392 383.145C247.852 383.23 246.312 383.657 245.028 384.511C243.831 385.365 242.462 385.707 241.007 385.707C239.552 385.707 238.184 385.28 237.071 384.511C235.702 383.572 234.077 383.059 232.365 383.145C230.654 383.145 229.028 383.572 227.659 384.511C226.462 385.365 225.093 385.707 223.724 385.707C222.269 385.707 220.9 385.28 219.788 384.511C218.419 383.572 216.793 383.059 215.082 383.145V384.597C216.537 384.597 217.906 385.024 219.018 385.792C220.387 386.732 222.098 387.244 223.724 387.159C225.435 387.159 227.061 386.732 228.43 385.792C229.627 384.938 230.996 384.597 232.365 384.597C233.82 384.597 235.189 385.024 236.301 385.792C237.67 386.732 239.296 387.244 241.007 387.159C242.718 387.159 244.344 386.732 245.713 385.792C246.911 384.938 248.365 384.511 249.82 384.597C250.333 385.792 251.274 386.646 252.472 387.073C253.67 387.5 254.953 387.415 256.066 386.817C257.178 386.219 257.948 385.194 258.29 383.913C258.547 382.718 258.376 381.437 257.606 380.327C258.119 379.9 258.376 379.302 258.376 378.704V378.533C258.376 378.363 258.376 378.277 258.376 378.106C258.205 377.167 257.349 376.569 256.408 376.569ZM257.093 378.619V378.79C257.093 379.046 256.921 379.216 256.75 379.387C256.322 379.046 255.895 378.875 255.381 378.704L253.242 378.021H256.494C256.75 378.021 257.093 378.277 257.093 378.619ZM247.082 376.569H243.232V369.994L247.082 376.569ZM238.184 348.302C238.184 347.534 238.526 346.765 239.039 346.253C239.553 345.741 240.323 345.399 241.093 345.399C241.863 345.399 242.633 345.741 243.146 346.253C243.659 346.765 244.002 347.534 244.002 348.302C244.002 349.071 243.659 349.84 243.146 350.352C242.633 350.864 241.863 351.206 241.093 351.206C240.323 351.206 239.553 350.864 239.039 350.352C238.526 349.84 238.184 349.071 238.184 348.302ZM241.093 352.999L241.349 352.743C241.863 352.829 242.376 353.085 242.718 353.426C243.06 353.853 243.232 354.366 243.232 354.878V358.55C243.232 359.063 243.317 359.49 243.403 360.002L243.831 363.247C243.916 363.503 243.916 364.784 243.916 365.809C243.745 366.321 243.488 366.748 243.146 367.09L241.007 363.503V357.867C241.007 357.44 240.665 357.184 240.323 357.184C239.895 357.184 239.552 357.525 239.552 357.952V361.027L238.184 358.721C238.611 356.415 239.638 354.451 241.093 352.999ZM239.809 366.663L239.638 366.407C238.697 364.87 238.184 363.076 238.184 361.283L242.29 368.286C242.034 368.627 241.863 369.054 241.863 369.481V376.569H239.296L239.381 376.484C240.066 375.801 240.408 374.861 240.408 373.922V368.883C240.408 368.115 240.151 367.346 239.809 366.663ZM241.093 381.437C240.151 381.437 239.125 381.266 238.269 380.839H244.002C243.06 381.351 242.119 381.522 241.093 381.437ZM235.531 379.473C234.504 379.046 233.478 378.875 232.365 378.875C231.424 378.875 230.397 379.046 229.456 379.302C227.232 379.131 225.093 378.619 223.039 377.936L219.702 376.825C219.446 376.74 219.275 376.484 219.275 376.228C219.275 376.057 219.36 375.801 219.531 375.715C219.702 375.63 219.959 375.544 220.13 375.63L222.526 376.398C225.52 377.423 228.686 377.936 231.938 377.936H247.852L248.28 379.387L235.531 379.473ZM254.012 385.963C253.328 385.963 252.729 385.792 252.216 385.365C251.702 385.024 251.274 384.426 251.103 383.828L249.392 378.363L254.868 380.07C255.809 380.327 256.494 381.095 256.836 382.035C257.178 382.974 257.007 383.999 256.408 384.767C255.895 385.536 255.039 385.963 254.012 385.963Z" fill="#002A50"/>
<path d="M218.679 354.878H231.171C231.428 354.878 231.684 354.707 231.77 354.536C232.626 353.084 232.711 351.206 231.856 349.668C231.085 348.131 229.545 347.106 227.834 346.936C227.406 345.74 226.465 344.715 225.182 344.288C223.984 343.861 222.615 343.947 221.503 344.63C220.39 345.313 219.62 346.423 219.449 347.704C219.192 347.619 218.936 347.619 218.679 347.619C217.396 347.619 216.198 348.302 215.513 349.412C214.829 350.522 214.829 351.889 215.513 352.999C216.112 354.194 217.31 354.878 218.679 354.878ZM218.679 349.071C219.107 349.071 219.449 349.156 219.791 349.412C220.048 349.583 220.305 349.583 220.561 349.412C220.818 349.241 220.904 348.985 220.904 348.729V348.644C220.904 348.558 220.904 348.473 220.904 348.387C220.904 347.448 221.417 346.509 222.187 345.996C222.957 345.484 223.984 345.398 224.925 345.74C225.781 346.082 226.465 346.936 226.636 347.875C226.722 348.217 226.979 348.473 227.321 348.473H227.406C228.604 348.473 229.802 349.071 230.401 350.095C231 351.12 231.171 352.401 230.658 353.511H218.594C217.823 353.511 217.139 353.084 216.711 352.401C216.283 351.718 216.283 350.864 216.711 350.266C217.139 349.498 217.824 349.071 218.679 349.071Z" fill="#002A50"/>
<path d="M248.969 353.426H256.156" stroke="#002A50" stroke-width="1.41664" stroke-miterlimit="10" stroke-linecap="round" stroke-linejoin="round"/>
<path d="M251.102 356.5H256.321" stroke="#002A50" stroke-width="1.41664" stroke-miterlimit="10" stroke-linecap="round" stroke-linejoin="round"/>
<path d="M258.121 356.5H259.576" stroke="#002A50" stroke-width="1.41664" stroke-miterlimit="10" stroke-linecap="round" stroke-linejoin="round"/>
<path d="M258.121 353.426H259.576" stroke="#002A50" stroke-width="1.41664" stroke-miterlimit="10" stroke-linecap="round" stroke-linejoin="round"/>
<path d="M261.547 356.5H263.001" stroke="#002A50" stroke-width="1.41664" stroke-miterlimit="10" stroke-linecap="round" stroke-linejoin="round"/>
<path d="M141.778 205.174C142.572 205.174 143.267 204.789 143.875 204.268H143.924L144.061 205H145.549V200.956C145.549 198.933 144.644 197.891 142.882 197.891C141.778 197.891 140.798 198.301 139.979 198.797L140.637 200.013C141.269 199.628 141.902 199.355 142.547 199.355C143.403 199.355 143.689 199.864 143.726 200.546C140.934 200.856 139.731 201.638 139.731 203.114C139.731 204.305 140.537 205.174 141.778 205.174ZM142.373 203.747C141.84 203.747 141.468 203.511 141.468 202.978C141.468 202.345 142.026 201.886 143.726 201.675V203.077C143.279 203.511 142.895 203.747 142.373 203.747ZM152.334 205.174C153.053 205.174 153.748 204.789 154.257 204.28H154.294L154.43 205H155.919V195.112H154.095V197.544L154.17 198.636C153.661 198.176 153.177 197.891 152.396 197.891C150.907 197.891 149.48 199.268 149.48 201.539C149.48 203.821 150.597 205.174 152.334 205.174ZM152.793 203.673C151.887 203.673 151.353 202.965 151.353 201.514C151.353 200.124 152.023 199.38 152.805 199.38C153.239 199.38 153.686 199.529 154.095 199.913V202.965C153.698 203.474 153.289 203.673 152.793 203.673ZM160.355 205H162.179V198.065H160.355V205ZM161.261 196.936C161.893 196.936 162.328 196.539 162.328 195.931C162.328 195.335 161.893 194.951 161.261 194.951C160.628 194.951 160.206 195.335 160.206 195.931C160.206 196.539 160.628 196.936 161.261 196.936ZM166.604 207.667H168.428V205.558L168.366 204.429C168.887 204.913 169.483 205.174 170.078 205.174C171.604 205.174 173.031 203.809 173.031 201.427C173.031 199.281 172.013 197.891 170.301 197.891C169.557 197.891 168.837 198.276 168.267 198.784H168.229L168.081 198.065H166.604V207.667ZM169.681 203.673C169.309 203.673 168.862 203.548 168.428 203.164V200.099C168.899 199.616 169.321 199.38 169.78 199.38C170.748 199.38 171.157 200.112 171.157 201.452C171.157 202.953 170.512 203.673 169.681 203.673ZM177.07 205H178.893V198.065H177.07V205ZM177.975 196.936C178.608 196.936 179.042 196.539 179.042 195.931C179.042 195.335 178.608 194.951 177.975 194.951C177.343 194.951 176.921 195.335 176.921 195.931C176.921 196.539 177.343 196.936 177.975 196.936ZM185.304 205.174C187.103 205.174 188.058 204.206 188.058 202.978C188.058 201.7 187.053 201.228 186.135 200.881C185.391 200.621 184.758 200.422 184.758 199.926C184.758 199.516 185.043 199.243 185.676 199.243C186.185 199.243 186.681 199.492 187.165 199.839L187.996 198.747C187.425 198.301 186.631 197.891 185.627 197.891C184.039 197.891 183.046 198.772 183.046 200C183.046 201.179 184.026 201.7 184.907 202.047C185.627 202.32 186.359 202.568 186.359 203.077C186.359 203.511 186.036 203.821 185.341 203.821C184.696 203.821 184.113 203.536 183.48 203.052L182.661 204.206C183.344 204.777 184.374 205.174 185.304 205.174ZM194.883 205.174C195.652 205.174 196.508 204.913 197.166 204.342L196.446 203.139C196.062 203.449 195.59 203.697 195.082 203.697C194.089 203.697 193.37 202.841 193.37 201.539C193.37 200.224 194.077 199.38 195.156 199.38C195.528 199.38 195.863 199.529 196.211 199.827L197.067 198.66C196.558 198.214 195.913 197.891 195.044 197.891C193.159 197.891 191.509 199.231 191.509 201.539C191.509 203.834 192.973 205.174 194.883 205.174ZM200.967 205H202.79V198.065H200.967V205ZM201.872 196.936C202.505 196.936 202.939 196.539 202.939 195.931C202.939 195.335 202.505 194.951 201.872 194.951C201.24 194.951 200.818 195.335 200.818 195.931C200.818 196.539 201.24 196.936 201.872 196.936ZM214.071 205H216.18L218.5 198.065H216.739L215.721 201.526C215.535 202.209 215.349 202.916 215.163 203.623H215.101C214.915 202.916 214.729 202.209 214.543 201.526L213.538 198.065H211.689L214.071 205ZM224.995 205.174C225.851 205.174 226.72 204.888 227.402 204.417L226.794 203.288C226.285 203.598 225.789 203.772 225.231 203.772C224.201 203.772 223.457 203.189 223.295 202.047H227.588C227.625 201.874 227.662 201.551 227.662 201.204C227.662 199.281 226.682 197.891 224.759 197.891C223.122 197.891 221.534 199.281 221.534 201.539C221.534 203.834 223.047 205.174 224.995 205.174ZM223.271 200.831C223.419 199.814 224.065 199.293 224.797 199.293C225.69 199.293 226.112 199.889 226.112 200.831H223.271ZM233.37 205.174C233.804 205.174 234.09 205.099 234.301 205.025L234.077 203.673C233.953 203.697 233.904 203.697 233.841 203.697C233.668 203.697 233.482 203.561 233.482 203.127V195.112H231.658V203.052C231.658 204.342 232.092 205.174 233.37 205.174ZM238.053 205H239.876V198.065H238.053V205ZM238.958 196.936C239.591 196.936 240.025 196.539 240.025 195.931C240.025 195.335 239.591 194.951 238.958 194.951C238.326 194.951 237.904 195.335 237.904 195.931C237.904 196.539 238.326 196.936 238.958 196.936ZM246.833 205.174C247.453 205.174 247.937 205.037 248.309 204.913L248.011 203.586C247.813 203.66 247.552 203.747 247.317 203.747C246.709 203.747 246.374 203.375 246.374 202.581V199.492H248.098V198.065H246.374V196.179H244.86L244.662 198.065L243.582 198.139V199.492H244.55V202.581C244.55 204.132 245.183 205.174 246.833 205.174ZM252.877 205.174C253.522 205.174 254.019 204.665 254.019 203.983C254.019 203.3 253.522 202.804 252.877 202.804C252.22 202.804 251.748 203.3 251.748 203.983C251.748 204.665 252.22 205.174 252.877 205.174Z" fill="#BED3E5"/>
<path d="M141.778 163.174C142.572 163.174 143.267 162.789 143.875 162.268H143.924L144.061 163H145.549V158.956C145.549 156.933 144.644 155.891 142.882 155.891C141.778 155.891 140.798 156.301 139.979 156.797L140.637 158.013C141.269 157.628 141.902 157.355 142.547 157.355C143.403 157.355 143.689 157.864 143.726 158.546C140.934 158.856 139.731 159.638 139.731 161.114C139.731 162.305 140.537 163.174 141.778 163.174ZM142.373 161.747C141.84 161.747 141.468 161.511 141.468 160.978C141.468 160.345 142.026 159.886 143.726 159.675V161.077C143.279 161.511 142.895 161.747 142.373 161.747ZM152.334 163.174C153.053 163.174 153.748 162.789 154.257 162.28H154.294L154.43 163H155.919V153.112H154.095V155.544L154.17 156.636C153.661 156.176 153.177 155.891 152.396 155.891C150.907 155.891 149.48 157.268 149.48 159.539C149.48 161.821 150.597 163.174 152.334 163.174ZM152.793 161.673C151.887 161.673 151.353 160.965 151.353 159.514C151.353 158.124 152.023 157.38 152.805 157.38C153.239 157.38 153.686 157.529 154.095 157.913V160.965C153.698 161.474 153.289 161.673 152.793 161.673ZM160.355 163H162.179V156.065H160.355V163ZM161.261 154.936C161.893 154.936 162.328 154.539 162.328 153.931C162.328 153.335 161.893 152.951 161.261 152.951C160.628 152.951 160.206 153.335 160.206 153.931C160.206 154.539 160.628 154.936 161.261 154.936ZM166.604 165.667H168.428V163.558L168.366 162.429C168.887 162.913 169.483 163.174 170.078 163.174C171.604 163.174 173.031 161.809 173.031 159.427C173.031 157.281 172.013 155.891 170.301 155.891C169.557 155.891 168.837 156.276 168.267 156.784H168.229L168.081 156.065H166.604V165.667ZM169.681 161.673C169.309 161.673 168.862 161.548 168.428 161.164V158.099C168.899 157.616 169.321 157.38 169.78 157.38C170.748 157.38 171.157 158.112 171.157 159.452C171.157 160.953 170.512 161.673 169.681 161.673ZM177.07 163H178.893V156.065H177.07V163ZM177.975 154.936C178.608 154.936 179.042 154.539 179.042 153.931C179.042 153.335 178.608 152.951 177.975 152.951C177.343 152.951 176.921 153.335 176.921 153.931C176.921 154.539 177.343 154.936 177.975 154.936ZM185.304 163.174C187.103 163.174 188.058 162.206 188.058 160.978C188.058 159.7 187.053 159.228 186.135 158.881C185.391 158.621 184.758 158.422 184.758 157.926C184.758 157.516 185.043 157.243 185.676 157.243C186.185 157.243 186.681 157.492 187.165 157.839L187.996 156.747C187.425 156.301 186.631 155.891 185.627 155.891C184.039 155.891 183.046 156.772 183.046 158C183.046 159.179 184.026 159.7 184.907 160.047C185.627 160.32 186.359 160.568 186.359 161.077C186.359 161.511 186.036 161.821 185.341 161.821C184.696 161.821 184.113 161.536 183.48 161.052L182.661 162.206C183.344 162.777 184.374 163.174 185.304 163.174ZM194.883 163.174C195.652 163.174 196.508 162.913 197.166 162.342L196.446 161.139C196.062 161.449 195.59 161.697 195.082 161.697C194.089 161.697 193.37 160.841 193.37 159.539C193.37 158.224 194.077 157.38 195.156 157.38C195.528 157.38 195.863 157.529 196.211 157.827L197.067 156.66C196.558 156.214 195.913 155.891 195.044 155.891C193.159 155.891 191.509 157.231 191.509 159.539C191.509 161.834 192.973 163.174 194.883 163.174ZM200.967 163H202.79V156.065H200.967V163ZM201.872 154.936C202.505 154.936 202.939 154.539 202.939 153.931C202.939 153.335 202.505 152.951 201.872 152.951C201.24 152.951 200.818 153.335 200.818 153.931C200.818 154.539 201.24 154.936 201.872 154.936ZM214.071 163H216.18L218.5 156.065H216.739L215.721 159.526C215.535 160.209 215.349 160.916 215.163 161.623H215.101C214.915 160.916 214.729 160.209 214.543 159.526L213.538 156.065H211.689L214.071 163ZM224.995 163.174C225.851 163.174 226.72 162.888 227.402 162.417L226.794 161.288C226.285 161.598 225.789 161.772 225.231 161.772C224.201 161.772 223.457 161.189 223.295 160.047H227.588C227.625 159.874 227.662 159.551 227.662 159.204C227.662 157.281 226.682 155.891 224.759 155.891C223.122 155.891 221.534 157.281 221.534 159.539C221.534 161.834 223.047 163.174 224.995 163.174ZM223.271 158.831C223.419 157.814 224.065 157.293 224.797 157.293C225.69 157.293 226.112 157.889 226.112 158.831H223.271ZM233.37 163.174C233.804 163.174 234.09 163.099 234.301 163.025L234.077 161.673C233.953 161.697 233.904 161.697 233.841 161.697C233.668 161.697 233.482 161.561 233.482 161.127V153.112H231.658V161.052C231.658 162.342 232.092 163.174 233.37 163.174ZM238.053 163H239.876V156.065H238.053V163ZM238.958 154.936C239.591 154.936 240.025 154.539 240.025 153.931C240.025 153.335 239.591 152.951 238.958 152.951C238.326 152.951 237.904 153.335 237.904 153.931C237.904 154.539 238.326 154.936 238.958 154.936ZM246.833 163.174C247.453 163.174 247.937 163.037 248.309 162.913L248.011 161.586C247.813 161.66 247.552 161.747 247.317 161.747C246.709 161.747 246.374 161.375 246.374 160.581V157.492H248.098V156.065H246.374V154.179H244.86L244.662 156.065L243.582 156.139V157.492H244.55V160.581C244.55 162.132 245.183 163.174 246.833 163.174ZM252.877 163.174C253.522 163.174 254.019 162.665 254.019 161.983C254.019 161.3 253.522 160.804 252.877 160.804C252.22 160.804 251.748 161.3 251.748 161.983C251.748 162.665 252.22 163.174 252.877 163.174Z" fill="#BED3E5"/>
<path d="M80.0051 123H85.9661L89.0122 110.816C89.6345 108.392 90.2895 105.543 90.8791 102.988H91.0101C91.6652 105.477 92.2875 108.392 92.9425 110.816L95.9885 123H102.146L94.5802 98.5991H87.571L80.0051 123ZM85.1473 117.399H96.9384V112.879H85.1473V117.399ZM110.798 123H116.628V112.355C117.578 109.899 119.248 109.014 120.624 109.014C121.443 109.014 122 109.146 122.687 109.309L123.637 104.298C123.113 104.069 122.491 103.905 121.377 103.905C119.51 103.905 117.447 105.117 116.071 107.606H115.973L115.547 104.364H110.798V123ZM138.615 130.828C145.101 130.828 149.195 128.044 149.195 124.114C149.195 120.74 146.574 119.332 141.989 119.332H139.041C137.043 119.332 136.29 118.939 136.29 118.087C136.29 117.432 136.487 117.17 136.88 116.777C137.698 117.006 138.452 117.104 139.074 117.104C143.201 117.104 146.509 115.205 146.509 110.849C146.509 109.964 146.28 109.113 146.018 108.589H148.867V104.364H142.022C141.17 104.069 140.155 103.905 139.074 103.905C135.045 103.905 131.279 106.132 131.279 110.652C131.279 112.847 132.491 114.582 133.834 115.5V115.631C132.589 116.482 131.737 117.792 131.737 119.102C131.737 120.675 132.458 121.657 133.441 122.312V122.476C131.705 123.36 130.82 124.605 130.82 126.144C130.82 129.485 134.325 130.828 138.615 130.828ZM139.074 113.6C137.731 113.6 136.716 112.617 136.716 110.652C136.716 108.785 137.731 107.803 139.074 107.803C140.45 107.803 141.465 108.785 141.465 110.652C141.465 112.617 140.45 113.6 139.074 113.6ZM139.533 127.192C137.174 127.192 135.602 126.537 135.602 125.227C135.602 124.605 135.864 124.081 136.454 123.557C137.043 123.721 137.764 123.786 139.107 123.786H140.875C142.611 123.786 143.594 124.015 143.594 125.129C143.594 126.308 141.924 127.192 139.533 127.192ZM166.19 123.459C168.352 123.459 170.906 122.705 172.839 121.33L170.906 117.825C169.563 118.611 168.319 119.004 166.976 119.004C164.618 119.004 162.849 117.956 162.325 115.401H173.265C173.396 114.943 173.527 113.927 173.527 112.879C173.527 107.803 170.906 103.905 165.535 103.905C161.048 103.905 156.692 107.639 156.692 113.665C156.692 119.856 160.818 123.459 166.19 123.459ZM162.227 111.569C162.62 109.375 164.028 108.359 165.633 108.359C167.762 108.359 168.581 109.735 168.581 111.569H162.227ZM183.801 123H189.631V110.554C190.745 109.473 191.531 108.883 192.841 108.883C194.315 108.883 195.003 109.604 195.003 112.192V123H200.833V111.471C200.833 106.82 199.097 103.905 195.035 103.905C192.514 103.905 190.614 105.182 189.074 106.689H188.976L188.55 104.364H183.801V123ZM219.247 123.459C221.146 123.459 222.489 123.066 223.472 122.771L222.555 118.546C222.096 118.709 221.441 118.906 220.851 118.906C219.476 118.906 218.493 118.087 218.493 116.024V108.916H222.882V104.364H218.493V99.4179H213.679L213.024 104.364L210.141 104.593V108.916H212.663V116.089C212.663 120.478 214.563 123.459 219.247 123.459ZM233.046 123H238.876V104.364H233.046V123ZM235.961 101.776C237.893 101.776 239.203 100.597 239.203 98.7628C239.203 96.9614 237.893 95.7823 235.961 95.7823C233.996 95.7823 232.718 96.9614 232.718 98.7628C232.718 100.597 233.996 101.776 235.961 101.776ZM250.12 123H255.95V110.554C257.063 109.473 257.849 108.883 259.159 108.883C260.633 108.883 261.321 109.604 261.321 112.192V123H267.151V111.471C267.151 106.82 265.415 103.905 261.354 103.905C258.832 103.905 256.932 105.182 255.393 106.689H255.294L254.869 104.364H250.12V123ZM282.945 123.459C285.008 123.459 286.744 122.509 288.283 121.133H288.447L288.84 123H293.589V112.421C293.589 106.591 290.871 103.905 286.056 103.905C283.141 103.905 280.488 104.888 278.032 106.362L280.062 110.194C281.929 109.146 283.469 108.556 284.943 108.556C286.842 108.556 287.628 109.44 287.759 110.947C280.488 111.733 277.409 113.862 277.409 117.792C277.409 120.904 279.506 123.459 282.945 123.459ZM284.943 118.939C283.731 118.939 282.945 118.415 282.945 117.334C282.945 116.024 284.124 114.943 287.759 114.484V117.465C286.908 118.382 286.122 118.939 284.943 118.939Z" fill="#B57556"/>
</g>
<defs>
<clipPath id="clip0_2403_3089">
<rect width="376" height="493" fill="white"/>
</clipPath>
</defs>
</svg>
