<svg width="24" height="24" viewBox="0 0 24 24" fill="none" xmlns="http://www.w3.org/2000/svg">
<path fill-rule="evenodd" clip-rule="evenodd" d="M12 0C5.376 0 0 5.376 0 12C0 18.624 5.376 24 12 24C18.624 24 24 18.624 24 12C24 5.376 18.624 0 12 0ZM9.35615 14.3608C9.49088 14.4952 9.70897 14.495 9.84351 14.3605L16.656 7.54801C17.1261 7.07794 17.8886 7.07929 18.357 7.55101C18.8231 8.02038 18.8217 8.77829 18.354 9.24601L10.4276 17.1724C9.97052 17.6295 9.22948 17.6295 8.77241 17.1724L4.44659 12.8466C3.97903 12.379 3.97903 11.621 4.44659 11.1534C4.91369 10.6863 5.67084 10.6858 6.13859 11.1522L9.35615 14.3608Z" fill="#E6FFB1"/>
</svg>
