<svg width="77" height="75" viewBox="0 0 77 75" fill="none" xmlns="http://www.w3.org/2000/svg">
<g clip-path="url(#clip0_2403_1492)">
<path d="M59.8897 65.2563C64.373 60.0061 55.2051 44.8175 39.4126 31.3316C23.62 17.8457 7.18319 11.1693 2.69985 16.4195C-1.7835 21.6697 7.38441 36.8583 23.177 50.3442C38.9695 63.8301 55.4063 70.5065 59.8897 65.2563Z" fill="#B87757"/>
<path d="M34.4267 30.6206C45.3255 39.906 47.2245 44.4747 42.834 49.5829C36.985 56.4267 32.7027 54.8447 21.7051 45.5742C10.7075 36.3037 4.80276 25.2577 8.33792 21.188C11.8731 17.1183 23.5132 21.2364 34.4267 30.6206Z" fill="#BED3E5" stroke="#BED3E5" stroke-width="0.2159" stroke-miterlimit="10"/>
<path d="M7.07274 28.2544L15.3198 18.5227C15.4879 18.2953 15.8291 18.5474 15.7599 18.76L10.7025 33.5747C10.6333 33.7873 10.9745 34.0394 11.1426 33.812L21.4662 21.7462C21.6343 21.5188 21.392 21.2518 21.2091 21.3803L7.32988 28.6203C7.14694 28.7489 6.90463 28.4819 7.07274 28.2544Z" stroke="#002A50" stroke-width="0.2006" stroke-miterlimit="10"/>
<path d="M15.8889 18.9437C15.8049 19.0575 15.6071 19.0871 15.4933 19.0031L15.0236 18.568C14.9098 18.4839 14.8802 18.2861 14.9642 18.1724C15.0483 18.0587 15.246 18.029 15.3598 18.113L15.8296 18.5481C15.9433 18.6322 15.973 18.83 15.8889 18.9437Z" fill="#002A50"/>
<path d="M7.5425 28.6867C7.45844 28.8004 7.26066 28.8301 7.14693 28.7461L6.57826 28.3258C6.46452 28.2417 6.43484 28.044 6.51889 27.9302C6.60295 27.8165 6.80073 27.7868 6.91446 27.8709L7.38424 28.306C7.59687 28.3752 7.62655 28.573 7.5425 28.6867Z" fill="#002A50"/>
<path d="M10.9749 34.0375C10.8908 34.1512 10.693 34.1809 10.5793 34.0968L10.1095 33.6617C9.99577 33.5777 9.96609 33.3799 10.0501 33.2662C10.1342 33.1524 10.332 33.1227 10.4457 33.2068L10.9155 33.6419C11.0292 33.7259 11.0589 33.9237 10.9749 34.0375Z" fill="#002A50"/>
<path d="M21.7339 21.5031C21.6499 21.6168 21.4521 21.6465 21.3383 21.5625L20.7697 21.1422C20.6559 21.0582 20.6262 20.8604 20.7103 20.7466C20.7944 20.6329 20.9921 20.6032 21.1059 20.6873L21.5756 21.1224C21.7883 21.1916 21.818 21.3894 21.7339 21.5031Z" fill="#002A50"/>
<path d="M39.1009 55.7037C39.185 55.5899 39.3828 55.5602 39.4965 55.6443L39.9663 56.0794C40.08 56.1634 40.1097 56.3612 40.0256 56.475C39.9416 56.5887 39.7438 56.6184 39.6301 56.5343L39.1603 56.0992C39.0466 56.0152 39.0317 55.9163 39.1009 55.7037Z" fill="#002A50"/>
<path d="M47.4447 45.9576C47.5287 45.8438 47.7265 45.8142 47.8402 45.8982L48.31 46.3333C48.4238 46.4174 48.4534 46.6151 48.3694 46.7289C48.2853 46.8426 48.0876 46.8723 47.9738 46.7882L47.504 46.3531C47.3903 46.2691 47.3606 46.0713 47.4447 45.9576Z" fill="#002A50"/>
<path d="M44.015 40.606C44.099 40.4923 44.2968 40.4626 44.4106 40.5466L44.8803 40.9817C44.9941 41.0658 45.0237 41.2636 44.9397 41.3773C44.8556 41.491 44.6579 41.5207 44.5441 41.4367L44.0744 41.0016C43.9606 40.9175 43.9309 40.7197 44.015 40.606Z" fill="#002A50"/>
<path d="M33.2572 53.1412C33.3412 53.0274 33.539 52.9977 33.6527 53.0818L34.1225 53.5169C34.2363 53.601 34.2659 53.7987 34.1819 53.9125C34.0978 54.0262 33.9 54.0559 33.7863 53.9718L33.3314 53.6356C33.2028 53.4527 33.1731 53.2549 33.2572 53.1412Z" fill="#002A50"/>
<path d="M59.9584 65.3135C62.2723 62.5393 60.9468 57.0755 56.8274 50.5142C51.5017 47.3698 48.1691 48.0722 44.0307 52.8391C40.9307 56.4391 40.9111 59.6779 44.976 64.5283C52.0965 67.5045 57.6297 67.9887 59.9584 65.3135Z" fill="#D7A793"/>
<path d="M47.9154 46.392L39.6684 56.1238C39.5003 56.3512 39.1591 56.0991 39.2283 55.8864L44.2856 41.0718C44.3548 40.8592 44.0136 40.607 43.8455 40.8345L33.5219 52.9003C33.3538 53.1277 33.5961 53.3947 33.779 53.2661L47.5594 46.041C47.8412 45.8976 48.0835 46.1646 47.9154 46.392Z" stroke="#002A50" stroke-width="0.2006" stroke-miterlimit="10"/>
<path d="M42.6244 56.2857C42.7084 56.172 42.9062 56.1423 43.0199 56.2263L43.4897 56.6614C43.6034 56.7455 43.6331 56.9433 43.5491 57.057C43.465 57.1707 43.2672 57.2004 43.1535 57.1164L42.6837 56.6813C42.5848 56.6961 42.5552 56.4983 42.6244 56.2857Z" fill="#002A50"/>
<path d="M48.222 49.7857C48.3061 49.672 48.5039 49.6423 48.6176 49.7263L49.0874 50.1614C49.2011 50.2455 49.2308 50.4433 49.1467 50.557C49.0627 50.6707 48.8649 50.7004 48.7512 50.6164L48.2814 50.1813C48.1676 50.0972 48.138 49.8994 48.222 49.7857Z" fill="#002A50"/>
<path d="M47.7478 46.6198L43.0362 56.3265C42.967 56.5392 43.1796 56.6084 43.2637 56.4946L48.5095 50.348C48.5936 50.2343 48.465 50.0513 48.2821 50.1799L39.7381 55.9114" stroke="#002A50" stroke-width="0.2159" stroke-miterlimit="10"/>
<path d="M48.9226 29.6355L12.5091 47.5529C11.9911 47.829 11.2195 47.5892 11.0196 46.9872C10.7659 46.4713 11.0302 45.6793 11.6312 45.4547L48.1276 27.5889C48.6456 27.3127 49.4173 27.5525 49.6172 28.1545C49.734 28.705 49.5235 29.4109 48.9226 29.6355Z" fill="#9DBBCE"/>
<path d="M62.8095 29.2383L53.3176 33.8945C50.1176 35.5042 46.2191 34.1641 44.8007 30.8876C43.3283 27.6975 44.7908 23.6919 48.074 22.1339L57.5659 17.4778C59.2075 16.6988 61.0882 17.3862 61.8513 18.938L64.4878 24.8873C65.197 26.5256 64.3972 28.5457 62.8095 29.2383Z" fill="#9DBBCE"/>
<path d="M13.2564 46.8604L12.4626 47.2067C11.9432 47.4835 11.1694 47.2431 10.969 46.6395C10.7146 46.1223 10.9796 45.3281 11.5823 45.1029L12.43 44.6703C12.9494 44.3934 13.7232 44.6338 13.9236 45.2374C14.1241 45.841 13.8297 46.4972 13.2564 46.8604Z" fill="#B5C6D2"/>
<path d="M43.3332 30.237L41.4023 31.168L42.3406 33.2224L44.2715 32.2914L43.3332 30.237Z" fill="#B5C6D2"/>
</g>
<defs>
<clipPath id="clip0_2403_1492">
<rect width="68.0606" height="64.7" fill="white" transform="translate(0 10.1016) rotate(-8.53481)"/>
</clipPath>
</defs>
</svg>
