<svg width="58" height="58" viewBox="0 0 58 58" fill="none" xmlns="http://www.w3.org/2000/svg">
<g clip-path="url(#clip0_2403_1518)">
<path d="M24.6995 18.7985L26.7995 23.9985C26.8995 24.1985 27.2995 24.0985 27.1995 23.7985L25.0995 18.5985C24.9995 18.3985 24.5995 18.5985 24.6995 18.7985Z" fill="#D2A553"/>
<path d="M17.1995 0.300146L23.3995 15.6001C23.4995 15.8001 23.8995 15.7001 23.7995 15.4001L17.5995 0.100146C17.4995 -0.0998544 17.0995 0.000145584 17.1995 0.300146Z" fill="#D2A553"/>
<path d="M18.7 24.9003L23.8 27.1003C24 27.2003 24.2 26.8003 24 26.7003L18.9 24.5003C18.7 24.4003 18.5 24.8003 18.7 24.9003Z" fill="#D2A553"/>
<path d="M0.301593 16.9998L15.5016 23.4998C15.7016 23.5998 15.9016 23.1998 15.7016 23.0998L0.501593 16.6998C0.301593 16.5998 0.101593 16.8998 0.301593 16.9998Z" fill="#D2A553"/>
<path d="M18.7985 33.3011L23.9985 31.2011C24.1985 31.1011 24.0985 30.7011 23.7985 30.8011L18.5985 32.9011C18.3985 33.0011 18.5985 33.4011 18.7985 33.3011Z" fill="#D2A553"/>
<path d="M0.300146 40.7995L15.6001 34.5995C15.8001 34.4995 15.7001 34.0995 15.4001 34.1995L0.100146 40.3995C-0.0998544 40.4995 0.000145584 40.8995 0.300146 40.7995Z" fill="#D2A553"/>
<path d="M24.9003 39.3008L27.1003 34.2008C27.2003 34.0008 26.8003 33.8008 26.7003 34.0008L24.5003 39.1008C24.4003 39.3008 24.8003 39.5008 24.9003 39.3008Z" fill="#D2A553"/>
<path d="M17.0016 57.7016L23.5016 42.5016C23.6016 42.3016 23.2016 42.1016 23.1016 42.3016L16.6016 57.5016C16.6016 57.7016 16.9016 57.9016 17.0016 57.7016Z" fill="#D2A553"/>
<path d="M33.3011 39.1986L31.2011 33.9986C31.1011 33.7986 30.7011 33.8986 30.8011 34.1986L32.9011 39.3986C33.0011 39.5986 33.4011 39.3986 33.3011 39.1986Z" fill="#D2A553"/>
<path d="M40.7995 57.697L34.5995 42.397C34.4995 42.197 34.0995 42.297 34.1995 42.597L40.3995 57.897C40.4995 58.097 40.8995 57.997 40.7995 57.697Z" fill="#D2A553"/>
<path d="M39.2992 33.1003L34.0992 31.0003C33.8992 30.9003 33.6992 31.3003 33.8992 31.4003L38.9992 33.6003C39.2992 33.6003 39.4992 33.2003 39.2992 33.1003Z" fill="#D2A553"/>
<path d="M57.6977 41.0003L42.4977 34.5003C42.2977 34.4003 42.0977 34.8003 42.2977 34.9003L57.4977 41.4003C57.6977 41.5003 57.8977 41.1003 57.6977 41.0003Z" fill="#D2A553"/>
<path d="M39.1986 24.6995L33.9986 26.7995C33.7986 26.8995 33.8986 27.2995 34.1986 27.1995L39.3986 25.0995C39.5986 24.9995 39.3986 24.5995 39.1986 24.6995Z" fill="#D2A553"/>
<path d="M57.697 17.1995L42.397 23.3995C42.197 23.4995 42.297 23.8995 42.597 23.7995L57.897 17.5995C58.097 17.4995 57.997 17.0995 57.697 17.1995Z" fill="#D2A553"/>
<path d="M33.1003 18.7016L31.0003 23.9016C30.9003 24.1016 31.3003 24.3016 31.4003 24.1016L33.6003 19.0016C33.6003 18.7016 33.2003 18.5016 33.1003 18.7016Z" fill="#D2A553"/>
<path d="M41.0003 0.301593L34.5003 15.5016C34.4003 15.7016 34.8003 15.9016 34.9003 15.7016L41.4003 0.501593C41.5003 0.301593 41.1003 0.101593 41.0003 0.301593Z" fill="#D2A553"/>
<path d="M29.0008 6.00156L28.8008 24.3016C28.8008 24.6016 29.2008 24.6016 29.2008 24.3016L29.4008 6.00156C29.4008 5.80156 29.0008 5.80156 29.0008 6.00156Z" fill="#D2A553"/>
<path d="M12.8003 12.7009L25.7003 25.8009C25.9003 26.0009 26.2003 25.7009 26.0003 25.5009L13.1003 12.5009C12.9003 12.3009 12.6003 12.6009 12.8003 12.7009Z" fill="#D2A553"/>
<path d="M6.00156 29.0016L24.3016 29.2016C24.6016 29.2016 24.6016 28.8016 24.3016 28.8016L6.00156 28.6016C5.80156 28.6016 5.80156 29.0016 6.00156 29.0016Z" fill="#D2A553"/>
<path d="M12.7009 45.2035L25.8009 32.3035C26.0009 32.1035 25.7009 31.8035 25.5009 32.0035L12.5009 45.0035C12.3009 45.1035 12.6009 45.4035 12.7009 45.2035Z" fill="#D2A553"/>
<path d="M29.0016 52.0016L29.2016 33.7016C29.2016 33.4016 28.8016 33.4016 28.8016 33.7016L28.6016 52.0016C28.6016 52.2016 29.0016 52.2016 29.0016 52.0016Z" fill="#D2A553"/>
<path d="M45.2011 45.3027L32.4011 32.2027C32.2011 32.0027 31.9011 32.3027 32.1011 32.5027L45.0011 45.5027C45.1011 45.7027 45.4011 45.4027 45.2011 45.3027Z" fill="#D2A553"/>
<path d="M52.0016 29.0008L33.7016 28.8008C33.4016 28.8008 33.4016 29.2008 33.7016 29.2008L52.0016 29.4008C52.2016 29.4008 52.2016 29.0008 52.0016 29.0008Z" fill="#D2A553"/>
<path d="M45.3027 12.8017L32.2027 25.6017C32.0027 25.8017 32.3027 26.1017 32.5027 25.9017L45.6027 13.0017C45.7027 12.9017 45.4027 12.6017 45.3027 12.8017Z" fill="#D2A553"/>
<path d="M28.9 52.8C42.0996 52.8 52.8 42.0996 52.8 28.9C52.8 15.7004 42.0996 5 28.9 5C15.7004 5 5 15.7004 5 28.9C5 42.0996 15.7004 52.8 28.9 52.8Z" fill="url(#paint0_linear_2403_1518)"/>
</g>
<defs>
<linearGradient id="paint0_linear_2403_1518" x1="10.7048" y1="56.9904" x2="50.7824" y2="-6.18233" gradientUnits="userSpaceOnUse">
<stop stop-color="#E7B85E" stop-opacity="0"/>
<stop offset="1" stop-color="#E7B85E"/>
</linearGradient>
<clipPath id="clip0_2403_1518">
<rect width="58" height="58" fill="white"/>
</clipPath>
</defs>
</svg>
